<svg xmlns="http://www.w3.org/2000/svg" viewBox="0 0 500 500" width="500" height="500" preserveAspectRatio="xMidYMid meet" style="width: 100%; height: 100%; transform: translate3d(0px, 0px, 0px); content-visibility: visible;"><defs><clipPath id="__lottie_element_894"><rect width="500" height="500" x="0" y="0"></rect></clipPath><clipPath id="__lottie_element_901"><path d="M0,0 L500,0 L500,500 L0,500z"></path></clipPath><clipPath id="__lottie_element_923"><path d="M0,0 L500,0 L500,500 L0,500z"></path></clipPath></defs><g clip-path="url(#__lottie_element_894)"><g clip-path="url(#__lottie_element_923)" transform="matrix(1,0,0,1,0,0)" opacity="1" style="display: block;"><g class="primary design" style="display: none;"><g><path stroke-linecap="butt" stroke-linejoin="miter" fill-opacity="0" stroke-miterlimit="4"></path></g><g><path></path></g></g><g class="primary design" style="display: none;"><g><path stroke-linecap="butt" stroke-linejoin="miter" fill-opacity="0" stroke-miterlimit="4"></path></g><g><path></path></g></g><g class="primary design" style="display: none;"><g><g><path></path></g></g><g><path stroke-linecap="round" stroke-linejoin="round" fill-opacity="0"></path></g></g><g class="primary design" style="display: none;"><g><g><path></path></g></g><g><path stroke-linecap="round" stroke-linejoin="round" fill-opacity="0"></path></g></g><g class="primary design" style="display: none;"><g><g><path></path></g></g><g><path stroke-linecap="round" stroke-linejoin="round" fill-opacity="0"></path></g></g><g class="primary design" transform="matrix(20.829999923706055,0,0,20.829999923706055,-4957.4970703125,-4957.498046875)" opacity="1" style="display: block;"><g opacity="1" transform="matrix(1,0,0,1,0,0)"><path stroke-linecap="butt" stroke-linejoin="miter" fill-opacity="0" stroke-miterlimit="4" stroke="rgb(241,241,241)" stroke-opacity="1" stroke-width="2" d="M0 0"></path></g><g opacity="1" transform="matrix(1,0,0,1,0,0)"><g opacity="1" transform="matrix(1,0,0,1,250,242)"><path fill="rgb(241,241,241)" fill-opacity="1" d=" M0,2 C0,2 0,2 0,2 C0,2 0.800000011920929,2 0.800000011920929,2 C0.9100000262260437,2 1.0199999809265137,1.9800000190734863 1.1100000143051147,1.940000057220459 C1.399999976158142,1.8200000524520874 1.600000023841858,1.5299999713897705 1.600000023841858,1.2000000476837158 C1.600000023841858,1.2000000476837158 1.600000023841858,-0.4000000059604645 1.600000023841858,-0.4000000059604645 C1.600000023841858,-1.2799999713897705 0.8799999952316284,-2 0,-2 C0,-2 0,-2 0,-2 C0,-2 0,-2 0,-2 C-0.8799999952316284,-2 -1.600000023841858,-1.2799999713897705 -1.600000023841858,-0.4000000059604645 C-1.600000023841858,-0.4000000059604645 -1.600000023841858,0.4000000059604645 -1.600000023841858,0.4000000059604645 C-1.600000023841858,1.2799999713897705 -0.8799999952316284,2 0,2z"></path></g><g opacity="1" transform="matrix(1,0,0,1,250,252.5)"><path fill="rgb(241,241,241)" fill-opacity="1" d=" M8.25,-7.5 C8.25,-7.5 -8.25,-7.5 -8.25,-7.5 C-8.670000076293945,-7.5 -9,-7.159999847412109 -9,-6.75 C-9,-6.340000152587891 -8.670000076293945,-6 -8.25,-6 C-8.25,-6 -3.75,-6 -3.75,-6 C-3.200000047683716,-6 -2.75,-5.550000190734863 -2.75,-5 C-2.75,-5 -2.75,6.619999885559082 -2.75,6.619999885559082 C-2.75,7.099999904632568 -2.359999895095825,7.489999771118164 -1.8799999952316284,7.489999771118164 C-1.399999976158142,7.489999771118164 -1.0099999904632568,7.099999904632568 -1.0099999904632568,6.619999885559082 C-1.0099999904632568,6.619999885559082 -1.0099999904632568,0.5 -1.0099999904632568,0.5 C-1.0099999904632568,-0.05000000074505806 -0.5600000023841858,-0.5 -0.009999999776482582,-0.5 C0.5400000214576721,-0.5 0.9900000095367432,-0.05000000074505806 0.9900000095367432,0.5 C0.9900000095367432,0.5 0.9900000095367432,6.619999885559082 0.9900000095367432,6.619999885559082 C0.9900000095367432,7.099999904632568 1.3799999952316284,7.5 1.8700000047683716,7.5 C2.359999895095825,7.5 2.75,7.110000133514404 2.75,6.619999885559082 C2.75,6.619999885559082 2.75,-5 2.75,-5 C2.75,-5.550000190734863 3.200000047683716,-6 3.75,-6 C3.75,-6 8.25,-6 8.25,-6 C8.670000076293945,-6 9,-6.340000152587891 9,-6.75 C9,-7.159999847412109 8.670000076293945,-7.5 8.25,-7.5z"></path></g></g></g><g class="primary design" style="display: none;"><g><path stroke-linecap="butt" stroke-linejoin="miter" fill-opacity="0" stroke-miterlimit="4"></path></g><g><g><path></path></g><g><path></path></g></g></g></g><g clip-path="url(#__lottie_element_901)" transform="matrix(1,0,0,1,0,0)" opacity="0" style="display: block;"><g class="primary design" style="display: none;"><g><path stroke-linecap="butt" stroke-linejoin="miter" fill-opacity="0" stroke-miterlimit="4"></path></g><g><path></path></g></g><g class="primary design" style="display: none;"><g><path stroke-linecap="butt" stroke-linejoin="miter" fill-opacity="0" stroke-miterlimit="4"></path></g><g><path></path></g></g><g class="primary design" style="display: none;"><g><g><path></path></g></g><g><path stroke-linecap="round" stroke-linejoin="round" fill-opacity="0"></path></g></g><g class="primary design" style="display: none;"><g><g><path></path></g></g><g><path stroke-linecap="round" stroke-linejoin="round" fill-opacity="0"></path></g></g><g class="primary design" style="display: none;"><g><g><path></path></g></g><g><path stroke-linecap="round" stroke-linejoin="round" fill-opacity="0"></path></g></g><g class="primary design" style="display: none;"><g><path stroke-linecap="butt" stroke-linejoin="miter" fill-opacity="0" stroke-miterlimit="4"></path></g><g><g><path></path></g><g><path></path></g></g></g></g><g class="com" style="display: none;"><g><path></path></g><g><path></path></g><g><path></path></g><g><path></path></g><g><path></path></g><g><path></path></g><g><path></path></g><g><path></path></g><g><path></path></g><g><path></path></g><g><path></path></g><g><path></path></g></g></g></svg>