<svg xmlns="http://www.w3.org/2000/svg" viewBox="0 0 500 500" width="500" height="500" preserveAspectRatio="xMidYMid meet" style="width: 100%; height: 100%; transform: translate3d(0px, 0px, 0px); content-visibility: visible;"><defs><clipPath id="__lottie_element_756"><rect width="500" height="500" x="0" y="0"></rect></clipPath><clipPath id="__lottie_element_763"><path d="M0,0 L500,0 L500,500 L0,500z"></path></clipPath><clipPath id="__lottie_element_776"><path d="M0,0 L500,0 L500,500 L0,500z"></path></clipPath><clipPath id="__lottie_element_795"><path d="M0,0 L500,0 L500,500 L0,500z"></path></clipPath><clipPath id="__lottie_element_805"><path d="M0,0 L500,0 L500,500 L0,500z"></path></clipPath></defs><g clip-path="url(#__lottie_element_756)"><g clip-path="url(#__lottie_element_805)" transform="matrix(1,0,0,1,0,0)" opacity="0" style="display: block;"><g class="primary design" transform="matrix(1,0,0,1,250.0030059814453,250.0030059814453)" opacity="1" style="display: block;"><g opacity="1" transform="matrix(1,0,0,1,0,0)"><path fill="rgb(241,241,241)" fill-opacity="1" d=" M203.85299682617188,-10.98799991607666 C203.85299682617188,-10.98799991607666 121.68599700927734,-94.3219985961914 121.68599700927734,-94.3219985961914 C115.62100219726562,-100.4749984741211 105.70999908447266,-100.5459976196289 99.55400085449219,-94.47799682617188 C93.4000015258789,-88.41000366210938 93.33000183105469,-78.5 99.39900207519531,-72.34600067138672 C99.39900207519531,-72.34600067138672 155.3000030517578,-15.649999618530273 155.3000030517578,-15.649999618530273 C155.3000030517578,-15.649999618530273 -192.70899963378906,-15.649999618530273 -192.70899963378906,-15.649999618530273 C-201.35299682617188,-15.649999618530273 -208.36000061035156,-8.642999649047852 -208.36000061035156,0 C-208.36000061035156,8.642999649047852 -201.35299682617188,15.64900016784668 -192.70899963378906,15.64900016784668 C-192.70899963378906,15.64900016784668 155.30099487304688,15.64900016784668 155.30099487304688,15.64900016784668 C155.30099487304688,15.64900016784668 99.39900207519531,72.34600067138672 99.39900207519531,72.34600067138672 C93.33000183105469,78.5 93.4000015258789,88.41000366210938 99.55400085449219,94.47799682617188 C102.60399627685547,97.48400115966797 106.572998046875,98.98300170898438 110.54199981689453,98.98300170898438 C114.58399963378906,98.98300170898438 118.6240005493164,97.4260025024414 121.68599700927734,94.32099914550781 C121.68599700927734,94.32099914550781 203.85299682617188,10.987000465393066 203.85299682617188,10.987000465393066 C209.86199951171875,4.894000053405762 209.86199951171875,-4.894999980926514 203.85299682617188,-10.98799991607666z"></path></g></g></g><g clip-path="url(#__lottie_element_795)" transform="matrix(1,0,0,1,0,0)" opacity="0" style="display: block;"><g class="primary design" transform="matrix(1,0,0,1,250.0030059814453,250.0030059814453)" opacity="1" style="display: block;"><g opacity="1" transform="matrix(1,0,0,1,0,0)"><path fill="rgb(241,241,241)" fill-opacity="1" d=" M203.85299682617188,-10.98799991607666 C203.85299682617188,-10.98799991607666 121.68599700927734,-94.3219985961914 121.68599700927734,-94.3219985961914 C115.62100219726562,-100.4749984741211 105.70999908447266,-100.5459976196289 99.55400085449219,-94.47799682617188 C93.4000015258789,-88.41000366210938 93.33000183105469,-78.5 99.39900207519531,-72.34600067138672 C99.39900207519531,-72.34600067138672 155.3000030517578,-15.649999618530273 155.3000030517578,-15.649999618530273 C155.3000030517578,-15.649999618530273 -192.70899963378906,-15.649999618530273 -192.70899963378906,-15.649999618530273 C-201.35299682617188,-15.649999618530273 -208.36000061035156,-8.642999649047852 -208.36000061035156,0 C-208.36000061035156,8.642999649047852 -201.35299682617188,15.64900016784668 -192.70899963378906,15.64900016784668 C-192.70899963378906,15.64900016784668 155.30099487304688,15.64900016784668 155.30099487304688,15.64900016784668 C155.30099487304688,15.64900016784668 99.39900207519531,72.34600067138672 99.39900207519531,72.34600067138672 C93.33000183105469,78.5 93.4000015258789,88.41000366210938 99.55400085449219,94.47799682617188 C102.60399627685547,97.48400115966797 106.572998046875,98.98300170898438 110.54199981689453,98.98300170898438 C114.58399963378906,98.98300170898438 118.6240005493164,97.4260025024414 121.68599700927734,94.32099914550781 C121.68599700927734,94.32099914550781 203.85299682617188,10.987000465393066 203.85299682617188,10.987000465393066 C209.86199951171875,4.894000053405762 209.86199951171875,-4.894999980926514 203.85299682617188,-10.98799991607666z"></path></g></g><g class="primary design" transform="matrix(1,0,0,1,-257.99700927734375,250.0030059814453)" opacity="1" style="display: block;"><g opacity="1" transform="matrix(1,0,0,1,0,0)"><path fill="rgb(241,241,241)" fill-opacity="1" d=" M203.85299682617188,-10.98799991607666 C203.85299682617188,-10.98799991607666 121.68599700927734,-94.3219985961914 121.68599700927734,-94.3219985961914 C115.62100219726562,-100.4749984741211 105.70999908447266,-100.5459976196289 99.55400085449219,-94.47799682617188 C93.4000015258789,-88.41000366210938 93.33000183105469,-78.5 99.39900207519531,-72.34600067138672 C99.39900207519531,-72.34600067138672 155.3000030517578,-15.649999618530273 155.3000030517578,-15.649999618530273 C155.3000030517578,-15.649999618530273 -192.70899963378906,-15.649999618530273 -192.70899963378906,-15.649999618530273 C-201.35299682617188,-15.649999618530273 -208.36000061035156,-8.642999649047852 -208.36000061035156,0 C-208.36000061035156,8.642999649047852 -201.35299682617188,15.64900016784668 -192.70899963378906,15.64900016784668 C-192.70899963378906,15.64900016784668 155.30099487304688,15.64900016784668 155.30099487304688,15.64900016784668 C155.30099487304688,15.64900016784668 99.39900207519531,72.34600067138672 99.39900207519531,72.34600067138672 C93.33000183105469,78.5 93.4000015258789,88.41000366210938 99.55400085449219,94.47799682617188 C102.60399627685547,97.48400115966797 106.572998046875,98.98300170898438 110.54199981689453,98.98300170898438 C114.58399963378906,98.98300170898438 118.6240005493164,97.4260025024414 121.68599700927734,94.32099914550781 C121.68599700927734,94.32099914550781 203.85299682617188,10.987000465393066 203.85299682617188,10.987000465393066 C209.86199951171875,4.894000053405762 209.86199951171875,-4.894999980926514 203.85299682617188,-10.98799991607666z"></path></g></g></g><g clip-path="url(#__lottie_element_776)" transform="matrix(1,0,0,1,0,0)" opacity="1" style="display: block;"><g class="primary design" style="display: none;"><g><g><path stroke-linecap="round" stroke-linejoin="round" fill-opacity="0"></path></g></g><g><path stroke-linecap="round" stroke-linejoin="round" fill-opacity="0"></path></g></g><g class="primary design" style="display: none;"><g><path stroke-linecap="round" stroke-linejoin="round" fill-opacity="0"></path></g></g><g class="primary design" style="display: none;"><g><g><path stroke-linecap="round" stroke-linejoin="round" fill-opacity="0"></path></g></g></g><g class="primary design" transform="matrix(1,0,0,1,250.0030059814453,250.0030059814453)" opacity="1" style="display: block;"><g opacity="1" transform="matrix(1,0,0,1,0,0)"><path fill="rgb(241,241,241)" fill-opacity="1" d=" M203.85299682617188,-10.98799991607666 C203.85299682617188,-10.98799991607666 121.68599700927734,-94.3219985961914 121.68599700927734,-94.3219985961914 C115.62100219726562,-100.4749984741211 105.70999908447266,-100.5459976196289 99.55400085449219,-94.47799682617188 C93.4000015258789,-88.41000366210938 93.33000183105469,-78.5 99.39900207519531,-72.34600067138672 C99.39900207519531,-72.34600067138672 155.3000030517578,-15.649999618530273 155.3000030517578,-15.649999618530273 C155.3000030517578,-15.649999618530273 -192.70899963378906,-15.649999618530273 -192.70899963378906,-15.649999618530273 C-201.35299682617188,-15.649999618530273 -208.36000061035156,-8.642999649047852 -208.36000061035156,0 C-208.36000061035156,8.642999649047852 -201.35299682617188,15.64900016784668 -192.70899963378906,15.64900016784668 C-192.70899963378906,15.64900016784668 155.30099487304688,15.64900016784668 155.30099487304688,15.64900016784668 C155.30099487304688,15.64900016784668 99.39900207519531,72.34600067138672 99.39900207519531,72.34600067138672 C93.33000183105469,78.5 93.4000015258789,88.41000366210938 99.55400085449219,94.47799682617188 C102.60399627685547,97.48400115966797 106.572998046875,98.98300170898438 110.54199981689453,98.98300170898438 C114.58399963378906,98.98300170898438 118.6240005493164,97.4260025024414 121.68599700927734,94.32099914550781 C121.68599700927734,94.32099914550781 203.85299682617188,10.987000465393066 203.85299682617188,10.987000465393066 C209.86199951171875,4.894000053405762 209.86199951171875,-4.894999980926514 203.85299682617188,-10.98799991607666z"></path></g></g><g class="primary design" style="display: none;"><g><path></path></g></g></g><g clip-path="url(#__lottie_element_763)" transform="matrix(1,0,0,1,0,0)" opacity="0" style="display: block;"><g class="primary design" style="display: none;"><g><path stroke-linecap="round" stroke-linejoin="round" fill-opacity="0"></path></g></g><g class="primary design" style="display: none;"><g><g><path stroke-linecap="round" stroke-linejoin="round" fill-opacity="0"></path></g></g></g><g class="primary design" style="display: none;"><g><path></path></g></g></g><g class="com" style="display: none;"><g><path></path></g><g><path></path></g><g><path></path></g><g><path></path></g><g><path></path></g><g><path></path></g><g><path></path></g><g><path></path></g><g><path></path></g><g><path></path></g><g><path></path></g><g><path></path></g></g></g></svg>