<svg xmlns="http://www.w3.org/2000/svg" viewBox="0 0 500 500" width="500" height="500" preserveAspectRatio="xMidYMid meet" style="width: 100%; height: 100%; transform: translate3d(0px, 0px, 0px); content-visibility: visible;"><defs><clipPath id="__lottie_element_699"><rect width="500" height="500" x="0" y="0"></rect></clipPath><clipPath id="__lottie_element_706"><path d="M0,0 L500,0 L500,500 L0,500z"></path></clipPath><mask id="__lottie_element_709" mask-type="alpha"><g class="primary design" style="display: none;"><g><path stroke-linecap="butt" stroke-linejoin="miter" fill-opacity="0" stroke-miterlimit="4"></path></g><g><path></path></g></g></mask><clipPath id="__lottie_element_725"><path d="M0,0 L500,0 L500,500 L0,500z"></path></clipPath><mask id="__lottie_element_734" mask-type="alpha"><g class="primary design" style="display: none;"><g><path stroke-linecap="butt" stroke-linejoin="miter" fill-opacity="0" stroke-miterlimit="4"></path></g><g><path></path></g></g></mask><mask id="__lottie_element_743" mask-type="alpha"><g class="primary design" style="display: none;"><g><path stroke-linecap="butt" stroke-linejoin="miter" fill-opacity="0" stroke-miterlimit="4"></path></g><g><path></path></g></g></mask></defs><g clip-path="url(#__lottie_element_699)"><g clip-path="url(#__lottie_element_725)" transform="matrix(1,0,0,1,0,0)" opacity="1" style="display: block;"><g class="primary design" style="display: none;"><g><path></path></g><g><path stroke-linecap="round" stroke-linejoin="round" fill-opacity="0"></path></g></g><g class="primary design" style="display: none;"><g><path></path></g><g><path stroke-linecap="round" stroke-linejoin="round" fill-opacity="0"></path></g><g><path stroke-linecap="round" stroke-linejoin="round" fill-opacity="0"></path></g></g><g mask="url(#__lottie_element_743)" style="display: none;"><g class="primary design"><g><path></path></g><g><path stroke-linecap="round" stroke-linejoin="round" fill-opacity="0"></path></g><g><path stroke-linecap="round" stroke-linejoin="round" fill-opacity="0"></path></g><g><path stroke-linecap="round" stroke-linejoin="round" fill-opacity="0"></path></g><g><path stroke-linecap="round" stroke-linejoin="round" fill-opacity="0"></path></g></g></g><g class="primary design" style="display: none;"><g><path></path></g><g><path stroke-linecap="round" stroke-linejoin="round" fill-opacity="0"></path></g></g><g mask="url(#__lottie_element_734)" style="display: none;"><g class="primary design"><g><path></path></g><g><path stroke-linecap="round" stroke-linejoin="round" fill-opacity="0"></path></g></g></g><g class="primary design" style="display: none;"><g><path stroke-linecap="butt" stroke-linejoin="miter" fill-opacity="0" stroke-miterlimit="4"></path></g><g><path></path></g><g><path></path></g><g><path></path></g><g><path></path></g><g><path></path></g></g><g class="primary design" transform="matrix(20.829999923706055,0,0,20.829999923706055,-4957.498046875,-4957.498046875)" opacity="1" style="display: block;"><g opacity="1" transform="matrix(1,0,0,1,0,0)"><path stroke-linecap="butt" stroke-linejoin="miter" fill-opacity="0" stroke-miterlimit="4" stroke="rgb(241,241,241)" stroke-opacity="1" stroke-width="2" d="M0 0"></path></g><g opacity="1" transform="matrix(1,0,0,1,250,250)"><path fill="rgb(241,241,241)" fill-opacity="1" d=" M6.25,10 C6.25,10 -6.25,10 -6.25,10 C-7.210000038146973,10 -8,9.210000038146973 -8,8.25 C-8,8.25 -8,-8.25 -8,-8.25 C-8,-9.210000038146973 -7.210000038146973,-10 -6.25,-10 C-6.25,-10 6.25,-10 6.25,-10 C7.210000038146973,-10 8,-9.210000038146973 8,-8.25 C8,-8.25 8,8.25 8,8.25 C8,9.210000038146973 7.210000038146973,10 6.25,10z M-6.25,-8.5 C-6.389999866485596,-8.5 -6.5,-8.390000343322754 -6.5,-8.25 C-6.5,-8.25 -6.5,8.25 -6.5,8.25 C-6.5,8.390000343322754 -6.389999866485596,8.5 -6.25,8.5 C-6.25,8.5 6.25,8.5 6.25,8.5 C6.389999866485596,8.5 6.5,8.390000343322754 6.5,8.25 C6.5,8.25 6.5,-8.25 6.5,-8.25 C6.5,-8.390000343322754 6.389999866485596,-8.5 6.25,-8.5 C6.25,-8.5 -6.25,-8.5 -6.25,-8.5z"></path></g><g opacity="1" transform="matrix(1,0,0,1,247.7550048828125,245.7550048828125)"><path fill="rgb(241,241,241)" fill-opacity="1" d=" M2.005000114440918,2.755000114440918 C2.005000114440918,2.755000114440918 -2.005000114440918,2.755000114440918 -2.005000114440918,2.755000114440918 C-2.4149999618530273,2.755000114440918 -2.755000114440918,2.4149999618530273 -2.755000114440918,2.005000114440918 C-2.755000114440918,2.005000114440918 -2.755000114440918,-2.005000114440918 -2.755000114440918,-2.005000114440918 C-2.755000114440918,-2.4149999618530273 -2.4149999618530273,-2.755000114440918 -2.005000114440918,-2.755000114440918 C-2.005000114440918,-2.755000114440918 2.005000114440918,-2.755000114440918 2.005000114440918,-2.755000114440918 C2.4149999618530273,-2.755000114440918 2.755000114440918,-2.4149999618530273 2.755000114440918,-2.005000114440918 C2.755000114440918,-2.005000114440918 2.755000114440918,2.005000114440918 2.755000114440918,2.005000114440918 C2.755000114440918,2.4149999618530273 2.4149999618530273,2.755000114440918 2.005000114440918,2.755000114440918z M-1.2549999952316284,1.2549999952316284 C-1.2549999952316284,1.2549999952316284 1.2549999952316284,1.2549999952316284 1.2549999952316284,1.2549999952316284 C1.2549999952316284,1.2549999952316284 1.2549999952316284,-1.2549999952316284 1.2549999952316284,-1.2549999952316284 C1.2549999952316284,-1.2549999952316284 -1.2549999952316284,-1.2549999952316284 -1.2549999952316284,-1.2549999952316284 C-1.2549999952316284,-1.2549999952316284 -1.2549999952316284,1.2549999952316284 -1.2549999952316284,1.2549999952316284z"></path></g><g opacity="1" transform="matrix(1,0,0,1,250,250.75)"><path fill="rgb(241,241,241)" fill-opacity="1" d=" M4.25,0.75 C4.25,0.75 -4.25,0.75 -4.25,0.75 C-4.659999847412109,0.75 -5,0.4099999964237213 -5,0 C-5,-0.4099999964237213 -4.659999847412109,-0.75 -4.25,-0.75 C-4.25,-0.75 4.25,-0.75 4.25,-0.75 C4.659999847412109,-0.75 5,-0.4099999964237213 5,0 C5,0.4099999964237213 4.659999847412109,0.75 4.25,0.75z"></path></g><g opacity="1" transform="matrix(1,0,0,1,250,253.50999450683594)"><path fill="rgb(241,241,241)" fill-opacity="1" d=" M4.25,0.75 C4.25,0.75 -4.25,0.75 -4.25,0.75 C-4.659999847412109,0.75 -5,0.4099999964237213 -5,0 C-5,-0.4099999964237213 -4.659999847412109,-0.75 -4.25,-0.75 C-4.25,-0.75 4.25,-0.75 4.25,-0.75 C4.659999847412109,-0.75 5,-0.4099999964237213 5,0 C5,0.4099999964237213 4.659999847412109,0.75 4.25,0.75z"></path></g><g opacity="1" transform="matrix(1,0,0,1,247.75,256.25)"><path fill="rgb(241,241,241)" fill-opacity="1" d=" M2,0.75 C2,0.75 -2,0.75 -2,0.75 C-2.4100000858306885,0.75 -2.75,0.4099999964237213 -2.75,0 C-2.75,-0.4099999964237213 -2.4100000858306885,-0.75 -2,-0.75 C-2,-0.75 2,-0.75 2,-0.75 C2.4100000858306885,-0.75 2.75,-0.4099999964237213 2.75,0 C2.75,0.4099999964237213 2.4100000858306885,0.75 2,0.75z"></path></g></g></g><g clip-path="url(#__lottie_element_706)" transform="matrix(1,0,0,1,0,0)" opacity="0" style="display: block;"><g class="primary design" style="display: none;"><g><path stroke-linecap="butt" stroke-linejoin="miter" fill-opacity="0" stroke-miterlimit="4"></path></g><g><path></path></g><g><path></path></g><g><path></path></g><g><path></path></g><g><path></path></g></g><g class="primary design" style="display: none;"><g><path></path></g><g><path stroke-linecap="round" stroke-linejoin="round" fill-opacity="0"></path></g></g><g class="primary design" style="display: none;"><g><path></path></g><g><path stroke-linecap="round" stroke-linejoin="round" fill-opacity="0"></path></g></g><g mask="url(#__lottie_element_709)" style="display: none;"><g class="primary design"><g><path></path></g><g><path stroke-linecap="round" stroke-linejoin="round" fill-opacity="0"></path></g><g><path stroke-linecap="round" stroke-linejoin="round" fill-opacity="0"></path></g><g><path stroke-linecap="round" stroke-linejoin="round" fill-opacity="0"></path></g><g><path stroke-linecap="round" stroke-linejoin="round" fill-opacity="0"></path></g></g></g></g><g class="com" style="display: none;"><g><path></path></g><g><path></path></g><g><path></path></g><g><path></path></g><g><path></path></g><g><path></path></g><g><path></path></g><g><path></path></g><g><path></path></g><g><path></path></g><g><path></path></g><g><path></path></g></g></g></svg>