<svg fill="#8F9BA8" xmlns="http://www.w3.org/2000/svg" viewBox="0 0 24 24" width="18" height="18"><path d="M19.67 2.29V.33H4.33v1.96h-4v3.55a2.756 2.756 0 001.13 2.58c.29.2.92.56 1.6.93V7.81c-.37-.21-.672-.387-.84-.5-.5-.332-.55-.73-.55-1.47v-2.2h2.66v7.5c.002.242.029.483.08.72a4.57 4.57 0 001.99 2.86l3.23 1.84c.552.315 1.12.602 1.7.86v2.57L6.92 22.3v1.37h10.16V22.3l-4.41-2.35v-2.46c.31-.15.83-.42 1.72-.93l3.22-1.84a4.54 4.54 0 001.99-2.81c.059-.252.09-.51.09-.77v-7.5h2.64v2.2c0 .74-.06 1.13-.55 1.47-.16.11-.46.29-.83.49v1.54c.68-.37 1.3-.72 1.59-.92a2.757 2.757 0 001.13-2.58V2.29zm-5.42 20.04h-4.5L12 21.12zm4.09-11.19a3.156 3.156 0 01-1.4 2.41l-3.22 1.84c-.76.43-1.36.75-1.64.88a15.37 15.37 0 01-1.78-.88l-3.23-1.84a3.186 3.186 0 01-1.4-2.41V3.55a.1.1 0 00.05-.04h-.05V1.67h12.66V7.6h.01z" fill=""></path></svg>
