<?xml version="1.0" encoding="iso-8859-1"?>
<!-- Uploaded to: SVG Repo, www.svgrepo.com, Generator: SVG Repo Mixer Tools -->
<!DOCTYPE svg PUBLIC "-//W3C//DTD SVG 1.1//EN" "http://www.w3.org/Graphics/SVG/1.1/DTD/svg11.dtd">
<svg fill="#F2F2F2" version="1.1" id="Capa_1" xmlns="http://www.w3.org/2000/svg" xmlns:xlink="http://www.w3.org/1999/xlink" 
	 width="800px" height="800px" viewBox="0 0 400.521 400.521"
	 xml:space="preserve">
<g>
	<g>
		<path d="M377.626,44.999l-22.104-22.103c-30.526-30.527-80.022-30.527-110.551,0l-5.781,5.78l132.654,132.653l5.781-5.78
			C408.15,125.022,408.154,75.529,377.626,44.999z"/>
		<path d="M193.851,74.02c-19.381,19.379-26.439,46.396-21.215,71.359L3.884,336.616c-5.424,6.145-5.133,15.447,0.662,21.24
			l38.117,38.119c5.794,5.795,15.098,6.084,21.242,0.662l191.236-168.752c24.961,5.225,51.982-1.834,71.36-21.215l23.845-23.846
			L217.695,50.173L193.851,74.02z"/>
	</g>
</g>
</svg>