<svg xmlns="http://www.w3.org/2000/svg" width="24" height="24" fill="#8F9BA8">
  <path d="M8.53 13.35h.83a.825.825 0 1 1 0 1.65h-.83v-1.65zm5.83 0h-.83V15h.83a.861.861 0 0 0 .82-.83 1.035 1.035 0 0 0-.07-.35.835.835 0 0 0-.75-.47z"/>
  <path fill-rule="evenodd" clip-rule="evenodd" d="M21.76 4.18L19.53 0H4.25L2 4.24l3.49 6.58a8 8 0 1 0 12.74.01l3.53-6.65zm-4.277-2.835L16.35 3.47H7.37L6.237 1.345h11.246zM3.53 4.24l1.36-2.56 3.59 6.74c-.74.342-1.42.798-2.02 1.35L3.53 4.24zm5.83 12.1h-.83v3.33H7.19V12h2.17c.435-.003.86.126 1.22.37a2.174 2.174 0 0 1-1.22 3.97zm.39-8.39L8.08 4.82h7.56l-1.67 3.13a8.09 8.09 0 0 0-4.22 0zm5.68 11.72l-1.36-3.33h-.54v3.33h-1.34V12h2.17a2.165 2.165 0 0 1 2.16 2.03.614.614 0 0 1 .01.14 2.148 2.148 0 0 1-1.06 1.85.21.21 0 0 1-.06.04l1.47 3.61h-1.45zm1.83-9.9a7.874 7.874 0 0 0-2.01-1.35l3.62-6.8 1.37 2.56-2.98 5.59z" fill="#8F9BA8"/>
</svg>