<svg id="Layer_2" data-name="Layer 2" xmlns="http://www.w3.org/2000/svg" width="18" height="18" viewBox="0 0 18 18">
  <g id="paper-plane">
    <rect id="Retângulo_1935" data-name="Retângulo 1935" width="18" height="18"/>
    <path id="Caminho_23646" data-name="Caminho 23646" d="M16,3.747a.982.982,0,0,0-.045-.2V3.477a.663.663,0,0,0-.368-.367h-.068A.645.645,0,0,0,15.291,3h-.037a.75.75,0,0,0-.225,0L1.528,7.5a.75.75,0,0,0,0,1.425l6.4,2.13,2.13,6.4a.75.75,0,0,0,1.425,0l4.5-13.5A.75.75,0,0,0,16,3.747ZM12.478,5.465,8.3,9.642l-4.178-1.4Zm-1.725,9.413L9.358,10.7l4.178-4.178Z" transform="translate(-0.253 -0.747)" fill="#8F9BA8"/>
  </g>
</svg>
