<svg xmlns="http://www.w3.org/2000/svg" width="24" height="24" fill="none"><path d="M6.57 8.24l1.32-2.47a.2.2 0 0 1 .18-.11.185.185 0 0 1 .18.11L12 12.81a1.562 1.562 0 0 0 2.77 0l1.3-2.45a1.307 1.307 0 0 1 1.17-.7H21V8.31h-3.76a2.676 2.676 0 0 0-2.36 1.41l-1.3 2.46c-.11.2-.28.2-.39 0L9.45 5.13a1.563 1.563 0 0 0-1.38-.82 1.536 1.536 0 0 0-1.37.82L5.38 7.61a1.327 1.327 0 0 1-1.17.7H3v1.35h1.21a2.654 2.654 0 0 0 2.36-1.42z" fill="#F2F2F2"/><path d="M21 14.31h-3.55a2.674 2.674 0 0 0-2.38 1.43l-1.32 2.48c-.12.21-.3.21-.41 0l-3.79-7.13a1.561 1.561 0 0 0-2.76 0l-1.33 2.5a1.359 1.359 0 0 1-1.19.72H3v1.35h1.27a2.695 2.695 0 0 0 2.38-1.43l1.33-2.5c.11-.2.27-.2.38 0l3.79 7.12a1.578 1.578 0 0 0 2.79 0l1.32-2.48a1.348 1.348 0 0 1 1.19-.71H21v-1.35z" fill="#F2F2F2"/><path d="M.33.33v23.34h23.34V.33H.33zm1.34 22V1.67h20.66v20.66H1.67z" fill="#F2F2F2"/></svg>