<svg xmlns="http://www.w3.org/2000/svg" viewBox="0 0 500 500" width="500" height="500" preserveAspectRatio="xMidYMid meet" style="width: 100%; height: 100%; transform: translate3d(0px, 0px, 0px); content-visibility: visible;"><defs><clipPath id="__lottie_element_1392"><rect width="500" height="500" x="0" y="0"></rect></clipPath><clipPath id="__lottie_element_1399"><path d="M0,0 L500,0 L500,500 L0,500z"></path></clipPath><filter id="__lottie_element_1409" filterUnits="objectBoundingBox" x="0%" y="0%" width="100%" height="100%"><feComponentTransfer in="SourceGraphic"><feFuncA type="table" tableValues="1.0 0.0"></feFuncA></feComponentTransfer></filter><mask id="__lottie_element_1408" mask-type="alpha"><g filter="url(#__lottie_element_1409)"><rect width="500" height="500" x="0" y="0" fill="#ffffff" opacity="0"></rect><g class="primary design" style="display: none;"><g><path></path></g></g></g></mask><mask id="__lottie_element_1415" mask-type="alpha"><g class="primary design" style="display: none;"><g><path></path></g></g></mask><clipPath id="__lottie_element_1422"><path d="M0,0 L500,0 L500,500 L0,500z"></path></clipPath><filter id="__lottie_element_1435" filterUnits="objectBoundingBox" x="0%" y="0%" width="100%" height="100%"><feComponentTransfer in="SourceGraphic"><feFuncA type="table" tableValues="1.0 0.0"></feFuncA></feComponentTransfer></filter><mask id="__lottie_element_1434" mask-type="alpha"><g filter="url(#__lottie_element_1435)"><rect width="500" height="500" x="0" y="0" fill="#ffffff" opacity="0"></rect><g class="primary design" style="display: none;"><g><path></path></g></g></g></mask><mask id="__lottie_element_1441" mask-type="alpha"><g class="primary design" style="display: none;"><g><path></path></g></g></mask></defs><g clip-path="url(#__lottie_element_1392)"><g clip-path="url(#__lottie_element_1422)" transform="matrix(1,0,0,1,0,0)" opacity="1" style="display: block;"><g mask="url(#__lottie_element_1441)" style="display: none;"><g class="primary design"><g><path stroke-linecap="round" stroke-linejoin="round" fill-opacity="0"></path></g><g><path stroke-linecap="round" stroke-linejoin="round" fill-opacity="0"></path></g></g></g><g mask="url(#__lottie_element_1434)" style="display: none;"><g class="primary design"><g><path stroke-linecap="round" stroke-linejoin="round" fill-opacity="0"></path></g></g></g><g class="primary design" style="display: none;"><g><path stroke-linecap="round" stroke-linejoin="round" fill-opacity="0"></path></g></g><g class="primary design" style="display: none;"><g><g><path></path></g><g><path></path></g></g></g><g class="primary design" transform="matrix(20.829999923706055,0,0,20.829999923706055,-4957.498046875,-4957.5048828125)" opacity="1" style="display: block;"><g opacity="1" transform="matrix(1,0,0,1,0,0)"><g opacity="1" transform="matrix(1,0,0,1,250,249.99899291992188)"><path fill="rgb(143,155,168)" fill-opacity="1" d=" M6.900000095367432,-7.238999843597412 C4.960000038146973,-9.079000473022461 2.430000066757202,-10.059000015258789 -0.23999999463558197,-9.99899959564209 C-2.9100000858306885,-9.939000129699707 -5.400000095367432,-8.829000473022461 -7.239999771118164,-6.89900016784668 C-9.079999923706055,-4.959000110626221 -10.0600004196167,-2.428999900817871 -10,0.2409999966621399 C-9.9399995803833,2.9110000133514404 -8.829999923706055,5.401000022888184 -6.900000095367432,7.241000175476074 C-5.019999980926514,9.031000137329102 -2.5899999141693115,10.00100040435791 -0.009999999776482582,10.00100040435791 C0.07000000029802322,10.00100040435791 0.1599999964237213,10.00100040435791 0.23999999463558197,10.00100040435791 C2.9100000858306885,9.940999984741211 5.400000095367432,8.831000328063965 7.239999771118164,6.901000022888184 C9.079999923706055,4.9710001945495605 10.0600004196167,2.430999994277954 10,-0.23899999260902405 C9.930000305175781,-2.9089999198913574 8.829999923706055,-5.39900016784668 6.900000095367432,-7.238999843597412z M0.20999999344348907,8.50100040435791 C-1.7999999523162842,8.550999641418457 -3.7300000190734863,7.901000022888184 -5.28000020980835,6.651000022888184 C-4.820000171661377,5.390999794006348 -3.609999895095825,4.511000156402588 -2.240000009536743,4.511000156402588 C-2.240000009536743,4.511000156402588 2.259999990463257,4.511000156402588 2.259999990463257,4.511000156402588 C3.630000114440918,4.511000156402588 4.840000152587891,5.390999794006348 5.300000190734863,6.640999794006348 C3.8499999046325684,7.801000118255615 2.0799999237060547,8.451000213623047 0.20999999344348907,8.50100040435791z M6.429999828338623,5.551000118255615 C5.619999885559082,4.031000137329102 4.03000020980835,3.010999917984009 2.25,3.010999917984009 C2.25,3.010999917984009 -2.25,3.010999917984009 -2.25,3.010999917984009 C-4.03000020980835,3.010999917984009 -5.630000114440918,4.031000137329102 -6.429999828338623,5.560999870300293 C-7.71999979019165,4.071000099182129 -8.449999809265137,2.2009999752044678 -8.489999771118164,0.210999995470047 C-8.550000190734863,-2.059000015258789 -7.71999979019165,-4.218999862670898 -6.150000095367432,-5.859000205993652 C-4.579999923706055,-7.499000072479248 -2.4700000286102295,-8.439000129699707 -0.20000000298023224,-8.48900032043457 C-0.12999999523162842,-8.48900032043457 -0.05999999865889549,-8.48900032043457 0.009999999776482582,-8.48900032043457 C2.200000047683716,-8.48900032043457 4.269999980926514,-7.658999919891357 5.869999885559082,-6.138999938964844 C7.510000228881836,-4.568999767303467 8.449999809265137,-2.4590001106262207 8.5,-0.1889999955892563 C8.550000190734863,1.9210000038146973 7.809999942779541,3.9509999752044678 6.429999828338623,5.551000118255615z"></path></g><g opacity="1" transform="matrix(1,0,0,1,250,247.25)"><path fill="rgb(143,155,168)" fill-opacity="1" d=" M0.25,-4.25 C0.25,-4.25 -0.25,-4.25 -0.25,-4.25 C-2.0399999618530273,-4.25 -3.5,-2.7899999618530273 -3.5,-1 C-3.5,-1 -3.5,1 -3.5,1 C-3.5,2.7899999618530273 -2.0399999618530273,4.25 -0.25,4.25 C-0.25,4.25 2.75,4.25 2.75,4.25 C3.1600000858306885,4.25 3.5,3.9100000858306885 3.5,3.5 C3.5,3.5 3.5,-1 3.5,-1 C3.5,-2.7899999618530273 2.0399999618530273,-4.25 0.25,-4.25z M2,2.75 C2,2.75 -0.25,2.75 -0.25,2.75 C-1.2100000381469727,2.75 -2,1.9600000381469727 -2,1 C-2,1 -2,-1 -2,-1 C-2,-1.9600000381469727 -1.2100000381469727,-2.75 -0.25,-2.75 C-0.25,-2.75 0.25,-2.75 0.25,-2.75 C1.2100000381469727,-2.75 2,-1.9700000286102295 2,-1 C2,-1 2,2.75 2,2.75z"></path></g></g></g></g><g clip-path="url(#__lottie_element_1399)" transform="matrix(1,0,0,1,0,0)" opacity="0" style="display: block;"><g mask="url(#__lottie_element_1415)" style="display: none;"><g class="primary design"><g><path stroke-linecap="round" stroke-linejoin="round" fill-opacity="0"></path></g><g><path stroke-linecap="round" stroke-linejoin="round" fill-opacity="0"></path></g></g></g><g mask="url(#__lottie_element_1408)" style="display: none;"><g class="primary design"><g><path stroke-linecap="round" stroke-linejoin="round" fill-opacity="0"></path></g></g></g><g class="primary design" style="display: none;"><g><path stroke-linecap="round" stroke-linejoin="round" fill-opacity="0"></path></g></g><g class="primary design" style="display: none;"><g><g><path></path></g><g><path></path></g></g></g></g><g class="com" style="display: none;"><g><path></path></g><g><path></path></g><g><path></path></g><g><path></path></g><g><path></path></g><g><path></path></g><g><path></path></g><g><path></path></g><g><path></path></g><g><path></path></g><g><path></path></g><g><path></path></g></g></g></svg>