<svg xmlns="http://www.w3.org/2000/svg" viewBox="0 0 500 500" width="500" height="500" preserveAspectRatio="xMidYMid meet" style="width: 100%; height: 100%; transform: translate3d(0px, 0px, 0px); content-visibility: visible;"><defs><clipPath id="__lottie_element_908"><rect width="500" height="500" x="0" y="0"></rect></clipPath><clipPath id="__lottie_element_915"><path d="M0,0 L500,0 L500,500 L0,500z"></path></clipPath><clipPath id="__lottie_element_929"><path d="M0,0 L500,0 L500,500 L0,500z"></path></clipPath><clipPath id="__lottie_element_946"><path d="M0,0 L500,0 L500,500 L0,500z"></path></clipPath><clipPath id="__lottie_element_965"><path d="M0,0 L500,0 L500,500 L0,500z"></path></clipPath></defs><g clip-path="url(#__lottie_element_908)"><g clip-path="url(#__lottie_element_965)" transform="matrix(1,0,0,1,0,0)" opacity="1" style="display: block;"><g class="primary design" transform="matrix(20.829999923706055,0,0,20.829999923706055,-4957.498046875,-4957.498046875)" opacity="1" style="display: block;"><g opacity="1" transform="matrix(1,0,0,1,0,0)"><g opacity="1" transform="matrix(1,0,0,1,250,244.75)"><path fill="rgb(143,155,168)" fill-opacity="1" d=" M-3.25,0.75 C-3.25,0.75 3.25,0.75 3.25,0.75 C3.6600000858306885,0.75 4,0.4099999964237213 4,0 C4,-0.4099999964237213 3.6600000858306885,-0.75 3.25,-0.75 C3.25,-0.75 -3.25,-0.75 -3.25,-0.75 C-3.6600000858306885,-0.75 -4,-0.41999998688697815 -4,0 C-4,0.41999998688697815 -3.6600000858306885,0.75 -3.25,0.75z"></path></g><g opacity="1" transform="matrix(1,0,0,1,250,250)"><path fill="rgb(143,155,168)" fill-opacity="1" d=" M6.25,-10 C6.25,-10 -4.25,-10 -4.25,-10 C-6.320000171661377,-10 -8,-8.319999694824219 -8,-6.25 C-8,-6.25 -8,6.340000152587891 -8,6.340000152587891 C-8,6.340000152587891 -7.989999771118164,6.340000152587891 -7.989999771118164,6.340000152587891 C-8,6.389999866485596 -8,6.449999809265137 -8,6.5 C-8,8.430000305175781 -6.429999828338623,10 -4.5,10 C-4.5,10 7.25,10 7.25,10 C7.670000076293945,10 8,9.65999984741211 8,9.25 C8,9.25 8,6.340000152587891 8,6.340000152587891 C8,6.340000152587891 8,3.75 8,3.75 C8,3.75 8,-8.25 8,-8.25 C8,-9.220000267028809 7.21999979019165,-10 6.25,-10z M6.5,6.340000152587891 C6.5,6.340000152587891 6.5,8.5 6.5,8.5 C6.5,8.5 -4.5,8.5 -4.5,8.5 C-5.599999904632568,8.5 -6.5,7.599999904632568 -6.5,6.5 C-6.5,5.400000095367432 -5.599999904632568,4.5 -4.5,4.5 C-4.5,4.5 6.5,4.5 6.5,4.5 C6.5,4.5 6.5,6.340000152587891 6.5,6.340000152587891z M-6.5,-6.25 C-6.5,-7.489999771118164 -5.489999771118164,-8.5 -4.25,-8.5 C-4.25,-8.5 6.25,-8.5 6.25,-8.5 C6.389999866485596,-8.5 6.5,-8.390000343322754 6.5,-8.25 C6.5,-8.25 6.5,3 6.5,3 C6.5,3 -4.5,3 -4.5,3 C-5.239999771118164,3 -5.940000057220459,3.2300000190734863 -6.5,3.640000104904175 C-6.5,3.640000104904175 -6.5,-6.25 -6.5,-6.25z"></path></g></g></g><g class="primary design" style="display: none;"><g><g><path stroke-linecap="round" stroke-linejoin="round" fill-opacity="0"></path></g><g><path stroke-linecap="round" stroke-linejoin="round" fill-opacity="0"></path></g></g></g><g class="primary design" style="display: none;"><g><path stroke-linecap="round" stroke-linejoin="round" fill-opacity="0"></path></g></g><g class="primary design" style="display: none;"><g><path stroke-linecap="round" stroke-linejoin="round" fill-opacity="0"></path></g><g><path stroke-linecap="round" stroke-linejoin="round" fill-opacity="0"></path></g></g><g class="primary design" style="display: none;"><g><path stroke-linecap="round" stroke-linejoin="round" fill-opacity="0"></path></g></g><g class="primary design" style="display: none;"><g><path stroke-linecap="round" stroke-linejoin="round" fill-opacity="0"></path></g></g><g class="primary design" style="display: none;"><g><path stroke-linecap="round" stroke-linejoin="round" fill-opacity="0"></path></g></g></g><g clip-path="url(#__lottie_element_946)" transform="matrix(1,0,0,1,0,0)" opacity="0" style="display: block;"><g class="primary design" transform="matrix(1,0,0,1,0,0)" opacity="1" style="display: block;"><g opacity="1" transform="matrix(1,0,0,1,0,0)"><g opacity="1" transform="matrix(1,0,0,1,250.00799560546875,255.46200561523438)"><path stroke-linecap="round" stroke-linejoin="round" fill-opacity="0" stroke="rgb(143,155,168)" stroke-opacity="1" stroke-width="31.3" d=" M0.1850000023841858,158.79600524902344 C0.1850000023841858,158.79600524902344 0.1850000023841858,-132.87399291992188 0.1850000023841858,-132.87399291992188 M1.0570000410079956,-133.33799743652344 C1.0570000410079956,-133.33799743652344 0.18199999630451202,-132.8730010986328 0.18199999630451202,-132.8730010986328 C-52.99800109863281,-161.0679931640625 -115.4489974975586,-166.0850067138672 -172.447998046875,-146.74000549316406 C-172.447998046875,-146.74000549316406 -213.30499267578125,-132.8730010986328 -213.30499267578125,-132.8730010986328 C-213.30499267578125,-132.8730010986328 -213.30499267578125,158.7969970703125 -213.30499267578125,158.7969970703125 C-213.30499267578125,158.7969970703125 -172.43600463867188,144.92599487304688 -172.43600463867188,144.92599487304688 C-115.44499969482422,125.58399963378906 -53.000999450683594,130.5970001220703 0.17499999701976776,158.7830047607422 C0.17499999701976776,158.7830047607422 0.20000000298023224,158.7969970703125 0.20000000298023224,158.7969970703125 C0.20000000298023224,158.7969970703125 1.0670000314712524,158.33599853515625 1.0670000314712524,158.33599853515625"></path></g><g opacity="1" transform="matrix(1,0,0,1,250.00799560546875,255.46200561523438)"><path stroke-linecap="round" stroke-linejoin="round" fill-opacity="0" stroke="rgb(143,155,168)" stroke-opacity="1" stroke-width="31.3" d=" M0.17499999701976776,158.7830047607422 C0.17499999701976776,158.7830047607422 0.20000000298023224,158.7969970703125 0.20000000298023224,158.7969970703125 C0.20000000298023224,158.7969970703125 1.0670000314712524,158.33599853515625 1.0670000314712524,158.33599853515625 C53.7400016784668,130.41200256347656 115.53299713134766,125.21399688720703 172.1300048828125,143.947998046875 C172.1300048828125,143.947998046875 213.30499267578125,157.57699584960938 213.30499267578125,157.57699584960938 C213.30499267578125,157.57699584960938 213.30499267578125,-134.09300231933594 213.30499267578125,-134.09300231933594 C213.30499267578125,-134.09300231933594 172.11099243164062,-147.7270050048828 172.11099243164062,-147.7270050048828 C115.51699829101562,-166.45700073242188 53.72700119018555,-161.26100158691406 1.0570000410079956,-133.33799743652344 C1.0570000410079956,-133.33799743652344 0.18199999630451202,-132.8730010986328 0.18199999630451202,-132.8730010986328"></path></g></g></g><g class="primary design" transform="matrix(1,0,0,1,356.74798583984375,255.46200561523438)" opacity="1" style="display: block;"><g opacity="1" transform="matrix(1,0,0,1,0,0)"><path stroke-linecap="round" stroke-linejoin="round" fill-opacity="0" stroke="rgb(143,155,168)" stroke-opacity="1" stroke-width="31.3" d=" M-106.56707763671875,158.7830047607422 C-106.56707763671875,158.7830047607422 -106.56715393066406,158.7969970703125 -106.56715393066406,158.7969970703125 C-106.56715393066406,158.7969970703125 -106.57567596435547,158.33599853515625 -106.57567596435547,158.33599853515625 C-106.73062896728516,129.5405731201172 -106.63214874267578,88.5467529296875 -106.83338165283203,61.88035202026367 C-106.83338165283203,61.88035202026367 -107.02962493896484,52.185420989990234 -107.02962493896484,52.185420989990234 C-107.02962493896484,52.185420989990234 -107.25605773925781,-237.29803466796875 -107.25605773925781,-237.29803466796875 C-107.25605773925781,-237.29803466796875 -107.15848541259766,-227.60012817382812 -107.15848541259766,-227.60012817382812 C-106.9552993774414,-204.88751220703125 -106.7315902709961,-160.46435546875 -106.57665252685547,-133.33799743652344 C-106.57665252685547,-133.33799743652344 -106.7176513671875,-132.8730010986328 -106.7176513671875,-132.8730010986328"></path></g></g><g class="primary design" transform="matrix(1,0,0,1,356.74798583984375,255.46200561523438)" opacity="1" style="display: block;"><g opacity="1" transform="matrix(1,0,0,1,0,0)"><path stroke-linecap="round" stroke-linejoin="round" fill-opacity="0" stroke="rgb(143,155,168)" stroke-opacity="1" stroke-width="31.3" d=" M-104.56800079345703,158.7830047607422 C-104.56800079345703,158.7830047607422 -104.54499816894531,158.7969970703125 -104.54499816894531,158.7969970703125 C-104.54499816894531,158.7969970703125 -103.69400024414062,158.33599853515625 -103.69400024414062,158.33599853515625 C-52.00899887084961,130.41200256347656 10.626999855041504,125.21399688720703 66.16200256347656,143.947998046875 C66.16200256347656,143.947998046875 106.56500244140625,157.57699584960938 106.56500244140625,157.57699584960938 C106.56500244140625,157.57699584960938 106.56500244140625,-134.09300231933594 106.56500244140625,-134.09300231933594 C106.56500244140625,-134.09300231933594 66.14299774169922,-147.7270050048828 66.14299774169922,-147.7270050048828 C10.609999656677246,-166.45700073242188 -52.02199935913086,-161.26100158691406 -103.7040023803711,-133.33799743652344 C-103.7040023803711,-133.33799743652344 -104.56199645996094,-132.8730010986328 -104.56199645996094,-132.8730010986328"></path></g></g><g class="primary design" style="display: none;"><g><path stroke-linecap="round" stroke-linejoin="round" fill-opacity="0"></path></g></g><g class="primary design" style="display: none;"><g><path stroke-linecap="round" stroke-linejoin="round" fill-opacity="0"></path></g></g></g><g clip-path="url(#__lottie_element_929)" transform="matrix(1,0,0,1,0,0)" opacity="0" style="display: block;"><g class="primary design" style="display: none;"><g><g><path></path></g><g><path></path></g></g></g><g class="primary design" transform="matrix(20.829999923706055,0,0,20.829999923706055,-4957.498046875,-4957.498046875)" opacity="1" style="display: block;"><g opacity="1" transform="matrix(1,0,0,1,0,0)"><g opacity="1" transform="matrix(1,0,0,1,250,244.75)"><path fill="rgb(143,155,168)" fill-opacity="1" d=" M-3.25,0.75 C-3.25,0.75 3.25,0.75 3.25,0.75 C3.6600000858306885,0.75 4,0.4099999964237213 4,0 C4,-0.4099999964237213 3.6600000858306885,-0.75 3.25,-0.75 C3.25,-0.75 -3.25,-0.75 -3.25,-0.75 C-3.6600000858306885,-0.75 -4,-0.41999998688697815 -4,0 C-4,0.41999998688697815 -3.6600000858306885,0.75 -3.25,0.75z"></path></g><g opacity="1" transform="matrix(1,0,0,1,250,250)"><path fill="rgb(143,155,168)" fill-opacity="1" d=" M6.25,-10 C6.25,-10 -4.25,-10 -4.25,-10 C-6.320000171661377,-10 -8,-8.319999694824219 -8,-6.25 C-8,-6.25 -8,6.340000152587891 -8,6.340000152587891 C-8,6.340000152587891 -7.989999771118164,6.340000152587891 -7.989999771118164,6.340000152587891 C-8,6.389999866485596 -8,6.449999809265137 -8,6.5 C-8,8.430000305175781 -6.429999828338623,10 -4.5,10 C-4.5,10 7.25,10 7.25,10 C7.670000076293945,10 8,9.65999984741211 8,9.25 C8,9.25 8,6.340000152587891 8,6.340000152587891 C8,6.340000152587891 8,3.75 8,3.75 C8,3.75 8,-8.25 8,-8.25 C8,-9.220000267028809 7.21999979019165,-10 6.25,-10z M6.5,6.340000152587891 C6.5,6.340000152587891 6.5,8.5 6.5,8.5 C6.5,8.5 -4.5,8.5 -4.5,8.5 C-5.599999904632568,8.5 -6.5,7.599999904632568 -6.5,6.5 C-6.5,5.400000095367432 -5.599999904632568,4.5 -4.5,4.5 C-4.5,4.5 6.5,4.5 6.5,4.5 C6.5,4.5 6.5,6.340000152587891 6.5,6.340000152587891z M-6.5,-6.25 C-6.5,-7.489999771118164 -5.489999771118164,-8.5 -4.25,-8.5 C-4.25,-8.5 6.25,-8.5 6.25,-8.5 C6.389999866485596,-8.5 6.5,-8.390000343322754 6.5,-8.25 C6.5,-8.25 6.5,3 6.5,3 C6.5,3 -4.5,3 -4.5,3 C-5.239999771118164,3 -5.940000057220459,3.2300000190734863 -6.5,3.640000104904175 C-6.5,3.640000104904175 -6.5,-6.25 -6.5,-6.25z"></path></g></g></g><g class="primary design" style="display: none;"><g><path stroke-linecap="round" stroke-linejoin="round" fill-opacity="0"></path></g></g><g class="primary design" style="display: none;"><g><path stroke-linecap="round" stroke-linejoin="round" fill-opacity="0"></path></g><g><path stroke-linecap="round" stroke-linejoin="round" fill-opacity="0"></path></g></g></g><g clip-path="url(#__lottie_element_915)" transform="matrix(1,0,0,1,0,0)" opacity="0" style="display: block;"><g class="primary design" style="display: none;"><g><g><path></path></g><g><path></path></g></g></g><g class="primary design" style="display: none;"><g><path stroke-linecap="round" stroke-linejoin="round" fill-opacity="0"></path></g></g><g class="primary design" style="display: none;"><g><path stroke-linecap="round" stroke-linejoin="round" fill-opacity="0"></path></g><g><path stroke-linecap="round" stroke-linejoin="round" fill-opacity="0"></path></g></g></g><g style="display: none;"><path></path></g></g></svg>