<svg xmlns="http://www.w3.org/2000/svg" viewBox="0 0 500 500" width="500" height="500" preserveAspectRatio="xMidYMid meet" style="width: 100%; height: 100%; transform: translate3d(0px, 0px, 0px); content-visibility: visible;"><defs><clipPath id="__lottie_element_1044"><rect width="500" height="500" x="0" y="0"></rect></clipPath><clipPath id="__lottie_element_1051"><path d="M0,0 L500,0 L500,500 L0,500z"></path></clipPath><clipPath id="__lottie_element_1067"><path d="M0,0 L500,0 L500,500 L0,500z"></path></clipPath></defs><g clip-path="url(#__lottie_element_1044)"><g clip-path="url(#__lottie_element_1067)" transform="matrix(1,0,0,1,0,0)" opacity="1" style="display: block;"><g class="primary design" transform="matrix(20.829999923706055,0,0,20.829999923706055,-4957.498046875,-4957.49267578125)" opacity="1" style="display: block;"><g opacity="1" transform="matrix(1,0,0,1,256.9949951171875,250.00100708007812)"><path fill="rgb(143,155,168)" fill-opacity="1" d=" M-1.6749999523162842,-5.730999946594238 C-1.9450000524520874,-6.051000118255615 -2.4149999618530273,-6.091000080108643 -2.734999895095825,-5.821000099182129 C-3.055000066757202,-5.551000118255615 -3.0950000286102295,-5.080999851226807 -2.825000047683716,-4.761000156402588 C-2.825000047683716,-4.761000156402588 1.2549999952316284,0.07900000363588333 1.2549999952316284,0.07900000363588333 C1.2549999952316284,0.07900000363588333 -2.825000047683716,4.758999824523926 -2.825000047683716,4.758999824523926 C-3.0950000286102295,5.068999767303467 -3.065000057220459,5.548999786376953 -2.755000114440918,5.818999767303467 C-2.5950000286102295,5.939000129699707 -2.424999952316284,5.999000072479248 -2.244999885559082,5.999000072479248 C-2.0350000858306885,5.999000072479248 -1.8250000476837158,5.908999919891357 -1.6749999523162842,5.738999843597412 C-1.6749999523162842,5.738999843597412 2.825000047683716,0.5690000057220459 2.825000047683716,0.5690000057220459 C3.065000057220459,0.289000004529953 3.075000047683716,-0.12099999934434891 2.8350000381469727,-0.41100001335144043 C2.8350000381469727,-0.41100001335144043 -1.6749999523162842,-5.730999946594238 -1.6749999523162842,-5.730999946594238z"></path></g><g opacity="1" transform="matrix(1,0,0,1,242.9969940185547,250)"><path fill="rgb(143,155,168)" fill-opacity="1" d=" M2.743000030517578,-5.820000171661377 C2.433000087738037,-6.090000152587891 1.9630000591278076,-6.050000190734863 1.6829999685287476,-5.739999771118164 C1.6829999685287476,-5.739999771118164 -2.816999912261963,-0.5699999928474426 -2.816999912261963,-0.5699999928474426 C-3.056999921798706,-0.28999999165534973 -3.066999912261963,0.11999999731779099 -2.8269999027252197,0.4099999964237213 C-2.8269999027252197,0.4099999964237213 1.6729999780654907,5.739999771118164 1.6729999780654907,5.739999771118164 C1.8229999542236328,5.909999847412109 2.0429999828338623,6 2.253000020980835,6 C2.4230000972747803,6 2.5929999351501465,5.940000057220459 2.7330000400543213,5.820000171661377 C3.052999973297119,5.550000190734863 3.0929999351501465,5.079999923706055 2.822999954223633,4.760000228881836 C2.822999954223633,4.760000228881836 -1.2569999694824219,-0.07999999821186066 -1.2569999694824219,-0.07999999821186066 C-1.2569999694824219,-0.07999999821186066 2.822999954223633,-4.760000228881836 2.822999954223633,-4.760000228881836 C3.0929999351501465,-5.070000171661377 3.052999973297119,-5.539999961853027 2.743000030517578,-5.820000171661377z"></path></g><g opacity="1" transform="matrix(1,0,0,1,250,249.99600219726562)"><path fill="rgb(143,155,168)" fill-opacity="1" d=" M1.7000000476837158,-6.0960001945495605 C1.2999999523162842,-6.205999851226807 0.8899999856948853,-5.97599983215332 0.7799999713897705,-5.576000213623047 C0.7799999713897705,-5.576000213623047 -2.2200000286102295,5.173999786376953 -2.2200000286102295,5.173999786376953 C-2.3299999237060547,5.573999881744385 -2.0999999046325684,5.984000205993652 -1.7000000476837158,6.093999862670898 C-1.6299999952316284,6.113999843597412 -1.5700000524520874,6.124000072479248 -1.5,6.124000072479248 C-1.1699999570846558,6.124000072479248 -0.8700000047683716,5.9039998054504395 -0.7799999713897705,5.573999881744385 C-0.7799999713897705,5.573999881744385 2.2200000286102295,-5.176000118255615 2.2200000286102295,-5.176000118255615 C2.3299999237060547,-5.565999984741211 2.0999999046325684,-5.986000061035156 1.7000000476837158,-6.0960001945495605z"></path></g></g><g class="primary design" style="display: none;"><g><path></path></g><g><path></path></g><g><path></path></g></g><g class="primary design" style="display: none;"><g><path stroke-linecap="round" stroke-linejoin="round" fill-opacity="0"></path></g></g><g class="primary design" style="display: none;"><g><path stroke-linecap="round" stroke-linejoin="round" fill-opacity="0"></path></g></g><g class="primary design" style="display: none;"><g><path stroke-linecap="round" stroke-linejoin="round" fill-opacity="0"></path></g></g></g><g clip-path="url(#__lottie_element_1051)" transform="matrix(1,0,0,1,0,0)" opacity="0" style="display: block;"><g class="primary design" style="display: none;"><g><path></path></g><g><path></path></g><g><path></path></g></g><g class="primary design" style="display: none;"><g><path stroke-linecap="round" stroke-linejoin="round" fill-opacity="0"></path></g></g><g class="primary design" style="display: none;"><g><path stroke-linecap="round" stroke-linejoin="round" fill-opacity="0"></path></g></g><g class="primary design" style="display: none;"><g><path stroke-linecap="round" stroke-linejoin="round" fill-opacity="0"></path></g></g></g><g class="com" style="display: none;"><g><path></path></g><g><path></path></g><g><path></path></g><g><path></path></g><g><path></path></g><g><path></path></g><g><path></path></g><g><path></path></g><g><path></path></g><g><path></path></g><g><path></path></g><g><path></path></g></g></g></svg>