<?xml version="1.0" encoding="utf-8"?>
<!-- Generator: Adobe Illustrator 24.0.2, SVG Export Plug-In . SVG Version: 6.00 Build 0)  -->
<svg version="1.1" xmlns="http://www.w3.org/2000/svg" xmlns:xlink="http://www.w3.org/1999/xlink" x="0px" y="0px"
	 viewBox="0 0 24 24" style="enable-background:new 0 0 24 24;" xml:space="preserve">
<style type="text/css">
	.st0{fill:none;}
	.st1{display:none;}
	.st2{display:inline;}
	.st3{fill:none;stroke:#CECECE;stroke-width:0.1;stroke-miterlimit:10;}
	.st4{fill:#8f9ba8;}
</style>
<g id="bounding_box">
	<rect x="0" y="0" class="st0" width="24" height="24"/>
</g>
<g id="design">
	<path class="st4" d="M20.25,20H3.75C2.79,20,2,19.21,2,18.25V4.75C2,4.34,2.34,4,2.75,4H9.5c0.28,0,0.54,0.16,0.67,0.41L11.46,7
		h8.79C21.21,7,22,7.79,22,8.75v9.5C22,19.21,21.21,20,20.25,20z M3.5,5.5v12.75c0,0.14,0.11,0.25,0.25,0.25h16.5
		c0.14,0,0.25-0.11,0.25-0.25v-9.5c0-0.14-0.11-0.25-0.25-0.25H11c-0.28,0-0.54-0.16-0.67-0.41L9.04,5.5H3.5z"/>
</g>
</svg>
