<svg xmlns="http://www.w3.org/2000/svg" viewBox="0 0 500 500" width="500" height="500" preserveAspectRatio="xMidYMid meet" style="width: 100%; height: 100%; transform: translate3d(0px, 0px, 0px); content-visibility: visible;"><defs><clipPath id="__lottie_element_1247"><rect width="500" height="500" x="0" y="0"></rect></clipPath><clipPath id="__lottie_element_1254"><path d="M0,0 L500,0 L500,500 L0,500z"></path></clipPath><clipPath id="__lottie_element_1273"><path d="M0,0 L500,0 L500,500 L0,500z"></path></clipPath></defs><g clip-path="url(#__lottie_element_1247)"><g clip-path="url(#__lottie_element_1273)" transform="matrix(1,0,0,1,0,0)" opacity="1" style="display: block;"><g class="primary design" transform="matrix(20.829999923706055,0,0,20.829999923706055,-4957.498046875,-4957.498046875)" opacity="1" style="display: block;"><g opacity="1" transform="matrix(1,0,0,1,245,255)"><path fill="rgb(143,155,168)" fill-opacity="1" d=" M2.25,-4 C2.25,-4 -2.25,-4 -2.25,-4 C-3.2200000286102295,-4 -4,-3.2100000381469727 -4,-2.25 C-4,-2.25 -4,2.25 -4,2.25 C-4,3.2100000381469727 -3.2200000286102295,4 -2.25,4 C-2.25,4 2.25,4 2.25,4 C3.2100000381469727,4 4,3.2100000381469727 4,2.25 C4,2.25 4,-2.25 4,-2.25 C4,-3.2100000381469727 3.2100000381469727,-4 2.25,-4z M2.5,2.25 C2.5,2.390000104904175 2.390000104904175,2.5 2.25,2.5 C2.25,2.5 -2.25,2.5 -2.25,2.5 C-2.390000104904175,2.5 -2.5,2.390000104904175 -2.5,2.25 C-2.5,2.25 -2.5,-2.25 -2.5,-2.25 C-2.5,-2.390000104904175 -2.390000104904175,-2.5 -2.25,-2.5 C-2.25,-2.5 2.25,-2.5 2.25,-2.5 C2.390000104904175,-2.5 2.5,-2.390000104904175 2.5,-2.25 C2.5,-2.25 2.5,2.25 2.5,2.25z"></path></g><g opacity="1" transform="matrix(1,0,0,1,245,245)"><path fill="rgb(143,155,168)" fill-opacity="1" d=" M2.25,-4 C2.25,-4 -2.25,-4 -2.25,-4 C-3.2200000286102295,-4 -4,-3.2100000381469727 -4,-2.25 C-4,-2.25 -4,2.25 -4,2.25 C-4,3.2100000381469727 -3.2200000286102295,4 -2.25,4 C-2.25,4 2.25,4 2.25,4 C3.2100000381469727,4 4,3.2100000381469727 4,2.25 C4,2.25 4,-2.25 4,-2.25 C4,-3.2100000381469727 3.2100000381469727,-4 2.25,-4z M2.5,2.25 C2.5,2.390000104904175 2.390000104904175,2.5 2.25,2.5 C2.25,2.5 -2.25,2.5 -2.25,2.5 C-2.390000104904175,2.5 -2.5,2.390000104904175 -2.5,2.25 C-2.5,2.25 -2.5,-2.25 -2.5,-2.25 C-2.5,-2.390000104904175 -2.390000104904175,-2.5 -2.25,-2.5 C-2.25,-2.5 2.25,-2.5 2.25,-2.5 C2.390000104904175,-2.5 2.5,-2.390000104904175 2.5,-2.25 C2.5,-2.25 2.5,2.25 2.5,2.25z"></path></g><g opacity="1" transform="matrix(1,0,0,1,255,245)"><path fill="rgb(143,155,168)" fill-opacity="1" d=" M2.25,-4 C2.25,-4 -2.25,-4 -2.25,-4 C-3.2200000286102295,-4 -4,-3.2100000381469727 -4,-2.25 C-4,-2.25 -4,2.25 -4,2.25 C-4,3.2100000381469727 -3.2100000381469727,4 -2.25,4 C-2.25,4 2.25,4 2.25,4 C3.2100000381469727,4 4,3.2100000381469727 4,2.25 C4,2.25 4,-2.25 4,-2.25 C4,-3.2100000381469727 3.2100000381469727,-4 2.25,-4z M2.5,2.25 C2.5,2.390000104904175 2.390000104904175,2.5 2.25,2.5 C2.25,2.5 -2.25,2.5 -2.25,2.5 C-2.390000104904175,2.5 -2.5,2.390000104904175 -2.5,2.25 C-2.5,2.25 -2.5,-2.25 -2.5,-2.25 C-2.5,-2.390000104904175 -2.390000104904175,-2.5 -2.25,-2.5 C-2.25,-2.5 2.25,-2.5 2.25,-2.5 C2.390000104904175,-2.5 2.5,-2.390000104904175 2.5,-2.25 C2.5,-2.25 2.5,2.25 2.5,2.25z"></path></g><g opacity="1" transform="matrix(1,0,0,1,255,255)"><path fill="rgb(143,155,168)" fill-opacity="1" d=" M3.25,-0.75 C3.25,-0.75 0.75,-0.75 0.75,-0.75 C0.75,-0.75 0.75,-3.25 0.75,-3.25 C0.75,-3.6600000858306885 0.4099999964237213,-4 0,-4 C-0.4099999964237213,-4 -0.75,-3.6600000858306885 -0.75,-3.25 C-0.75,-3.25 -0.75,-0.75 -0.75,-0.75 C-0.75,-0.75 -3.25,-0.75 -3.25,-0.75 C-3.6600000858306885,-0.75 -4,-0.4099999964237213 -4,0 C-4,0.4099999964237213 -3.6600000858306885,0.75 -3.25,0.75 C-3.25,0.75 -0.75,0.75 -0.75,0.75 C-0.75,0.75 -0.75,3.25 -0.75,3.25 C-0.75,3.6600000858306885 -0.4099999964237213,4 0,4 C0.4099999964237213,4 0.75,3.6600000858306885 0.75,3.25 C0.75,3.25 0.75,0.75 0.75,0.75 C0.75,0.75 3.25,0.75 3.25,0.75 C3.6600000858306885,0.75 4,0.4099999964237213 4,0 C4,-0.4099999964237213 3.6600000858306885,-0.75 3.25,-0.75z"></path></g></g><g class="primary design" style="display: none;"><g><path></path></g><g><path></path></g><g><path></path></g><g><path></path></g></g><g class="primary design" style="display: none;"><g><path stroke-linecap="round" stroke-linejoin="round" fill-opacity="0"></path></g></g><g class="primary design" style="display: none;"><g><path stroke-linecap="round" stroke-linejoin="round" fill-opacity="0"></path></g></g><g class="primary design" style="display: none;"><g><path stroke-linecap="round" stroke-linejoin="round" fill-opacity="0"></path></g></g><g class="primary design" style="display: none;"><g><path stroke-linecap="round" stroke-linejoin="round" fill-opacity="0"></path></g></g><g class="primary design" style="display: none;"><g><path stroke-linecap="round" stroke-linejoin="round" fill-opacity="0"></path></g></g></g><g clip-path="url(#__lottie_element_1254)" transform="matrix(1,0,0,1,0,0)" opacity="0" style="display: block;"><g class="primary design" style="display: none;"><g><path></path></g><g><path></path></g><g><path></path></g><g><path></path></g></g><g class="primary design" style="display: none;"><g><path stroke-linecap="round" stroke-linejoin="round" fill-opacity="0"></path></g></g><g class="primary design" style="display: none;"><g><path stroke-linecap="round" stroke-linejoin="round" fill-opacity="0"></path></g></g><g class="primary design" style="display: none;"><g><path stroke-linecap="round" stroke-linejoin="round" fill-opacity="0"></path></g></g><g class="primary design" style="display: none;"><g><path stroke-linecap="round" stroke-linejoin="round" fill-opacity="0"></path></g></g></g><g class="com" style="display: none;"><g><path></path></g><g><path></path></g><g><path></path></g><g><path></path></g><g><path></path></g><g><path></path></g><g><path></path></g><g><path></path></g><g><path></path></g><g><path></path></g><g><path></path></g><g><path></path></g></g></g></svg>