<svg xmlns="http://www.w3.org/2000/svg" viewBox="0 0 500 500" width="500" height="500" preserveAspectRatio="xMidYMid meet" style="width: 100%; height: 100%; transform: translate3d(0px, 0px, 0px); content-visibility: visible;"><defs><clipPath id="__lottie_element_1086"><rect width="500" height="500" x="0" y="0"></rect></clipPath><clipPath id="__lottie_element_1093"><path d="M0,0 L500,0 L500,500 L0,500z"></path></clipPath><clipPath id="__lottie_element_1097"><path fill="#ffffff" clip-rule="nonzero" d=" M153.9969940185547,10.321000099182129 C153.9969940185547,10.321000099182129 -142.0030059814453,10.321000099182129 -142.0030059814453,10.321000099182129 C-142.0030059814453,10.321000099182129 -142.0030059814453,220.3209991455078 -142.0030059814453,220.3209991455078 C-142.0030059814453,220.3209991455078 153.9969940185547,220.3209991455078 153.9969940185547,220.3209991455078 C153.9969940185547,220.3209991455078 153.9969940185547,10.321000099182129 153.9969940185547,10.321000099182129"></path></clipPath><clipPath id="__lottie_element_1106"><path d="M0,0 L500,0 L500,500 L0,500z"></path></clipPath><clipPath id="__lottie_element_1119"><path d="M0,0 L500,0 L500,500 L0,500z"></path></clipPath><clipPath id="__lottie_element_1135"><path d="M0,0 L500,0 L500,500 L0,500z"></path></clipPath><clipPath id="__lottie_element_1148"><path d="M0,0 L500,0 L500,500 L0,500z"></path></clipPath><clipPath id="__lottie_element_1161"><path d="M0,0 L500,0 L500,500 L0,500z"></path></clipPath></defs><g clip-path="url(#__lottie_element_1086)"><g clip-path="url(#__lottie_element_1161)" transform="matrix(1,0,0,1,0,0)" opacity="0" style="display: block;"><g class="primary design" transform="matrix(20.829999923706055,0,0,20.829999923706055,250.0019989013672,249.63699340820312)" opacity="1" style="display: block;"><g opacity="1" transform="matrix(1,0,0,1,0,0)"><path fill="rgb(143,155,168)" fill-opacity="1" d=" M8.25,-3.6429998874664307 C8.25,-3.6429998874664307 1,-8.70199966430664 1,-8.70199966430664 C0.4000000059604645,-9.121999740600586 -0.4000000059604645,-9.121999740600586 -1,-8.70199966430664 C-1,-8.70199966430664 -8.25,-3.6429998874664307 -8.25,-3.6429998874664307 C-8.720000267028809,-3.322999954223633 -9,-2.7820000648498535 -9,-2.2119998931884766 C-9,-2.2119998931884766 -9,7.26800012588501 -9,7.26800012588501 C-9,8.227999687194824 -8.210000038146973,9.017999649047852 -7.25,9.017999649047852 C-7.25,9.017999649047852 -4.25,9.017999649047852 -4.25,9.017999649047852 C-2.7300000190734863,9.017999649047852 -1.5,7.788000106811523 -1.5,6.26800012588501 C-1.5,6.26800012588501 -1.5,2.7679998874664307 -1.5,2.7679998874664307 C-1.5,2.628000020980835 -1.3899999856948853,2.5179998874664307 -1.25,2.5179998874664307 C-1.25,2.5179998874664307 1.25,2.5179998874664307 1.25,2.5179998874664307 C1.3899999856948853,2.5179998874664307 1.5,2.628000020980835 1.5,2.7679998874664307 C1.5,2.7679998874664307 1.5,6.26800012588501 1.5,6.26800012588501 C1.5,7.788000106811523 2.7300000190734863,9.017999649047852 4.25,9.017999649047852 C4.25,9.017999649047852 7.25,9.017999649047852 7.25,9.017999649047852 C8.210000038146973,9.017999649047852 9,8.227999687194824 9,7.26800012588501 C9,7.26800012588501 9,-2.2119998931884766 9,-2.2119998931884766 C9,-2.7820000648498535 8.720000267028809,-3.322999954223633 8.25,-3.6429998874664307z M7.5,7.26800012588501 C7.5,7.4079999923706055 7.389999866485596,7.51800012588501 7.25,7.51800012588501 C7.25,7.51800012588501 4.25,7.51800012588501 4.25,7.51800012588501 C3.559999942779541,7.51800012588501 3,6.958000183105469 3,6.26800012588501 C3,6.26800012588501 3,2.7679998874664307 3,2.7679998874664307 C3,1.8079999685287476 2.2100000381469727,1.0180000066757202 1.25,1.0180000066757202 C1.25,1.0180000066757202 -1.25,1.0180000066757202 -1.25,1.0180000066757202 C-2.2100000381469727,1.0180000066757202 -3,1.8079999685287476 -3,2.7679998874664307 C-3,2.7679998874664307 -3,6.26800012588501 -3,6.26800012588501 C-3,6.958000183105469 -3.559999942779541,7.51800012588501 -4.25,7.51800012588501 C-4.25,7.51800012588501 -7.25,7.51800012588501 -7.25,7.51800012588501 C-7.389999866485596,7.51800012588501 -7.5,7.4079999923706055 -7.5,7.26800012588501 C-7.5,7.26800012588501 -7.5,-2.2119998931884766 -7.5,-2.2119998931884766 C-7.5,-2.2920000553131104 -7.460000038146973,-2.372999906539917 -7.389999866485596,-2.4230000972747803 C-7.389999866485596,-2.4230000972747803 -0.14000000059604645,-7.4730000495910645 -0.14000000059604645,-7.4730000495910645 C-0.05000000074505806,-7.5329999923706055 0.05999999865889549,-7.5329999923706055 0.15000000596046448,-7.4730000495910645 C0.15000000596046448,-7.4730000495910645 7.400000095367432,-2.4230000972747803 7.400000095367432,-2.4230000972747803 C7.46999979019165,-2.372999906539917 7.510000228881836,-2.302000045776367 7.510000228881836,-2.2119998931884766 C7.510000228881836,-2.2119998931884766 7.510000228881836,7.26800012588501 7.510000228881836,7.26800012588501 C7.510000228881836,7.26800012588501 7.5,7.26800012588501 7.5,7.26800012588501z"></path></g></g><g class="primary design" style="display: none;"><g><path stroke-linecap="round" stroke-linejoin="round" fill-opacity="0"></path></g></g><g class="primary design" style="display: none;"><g><path stroke-linecap="round" stroke-linejoin="round" fill-opacity="0"></path></g></g><g class="primary design" style="display: none;"><g><path stroke-linecap="round" stroke-linejoin="round" fill-opacity="0"></path></g></g><g style="display: none;"><g><path></path></g></g></g><g clip-path="url(#__lottie_element_1148)" transform="matrix(1,0,0,1,0,0)" opacity="0" style="display: block;"><g class="primary design" transform="matrix(20.829999923706055,0,0,20.829999923706055,250.0019989013672,249.63699340820312)" opacity="1" style="display: block;"><g opacity="1" transform="matrix(1,0,0,1,0,0)"><path fill="rgb(143,155,168)" fill-opacity="1" d=" M8.25,-3.6429998874664307 C8.25,-3.6429998874664307 1,-8.70199966430664 1,-8.70199966430664 C0.4000000059604645,-9.121999740600586 -0.4000000059604645,-9.121999740600586 -1,-8.70199966430664 C-1,-8.70199966430664 -8.25,-3.6429998874664307 -8.25,-3.6429998874664307 C-8.720000267028809,-3.322999954223633 -9,-2.7820000648498535 -9,-2.2119998931884766 C-9,-2.2119998931884766 -9,7.26800012588501 -9,7.26800012588501 C-9,8.227999687194824 -8.210000038146973,9.017999649047852 -7.25,9.017999649047852 C-7.25,9.017999649047852 -4.25,9.017999649047852 -4.25,9.017999649047852 C-2.7300000190734863,9.017999649047852 -1.5,7.788000106811523 -1.5,6.26800012588501 C-1.5,6.26800012588501 -1.5,2.7679998874664307 -1.5,2.7679998874664307 C-1.5,2.628000020980835 -1.3899999856948853,2.5179998874664307 -1.25,2.5179998874664307 C-1.25,2.5179998874664307 1.25,2.5179998874664307 1.25,2.5179998874664307 C1.3899999856948853,2.5179998874664307 1.5,2.628000020980835 1.5,2.7679998874664307 C1.5,2.7679998874664307 1.5,6.26800012588501 1.5,6.26800012588501 C1.5,7.788000106811523 2.7300000190734863,9.017999649047852 4.25,9.017999649047852 C4.25,9.017999649047852 7.25,9.017999649047852 7.25,9.017999649047852 C8.210000038146973,9.017999649047852 9,8.227999687194824 9,7.26800012588501 C9,7.26800012588501 9,-2.2119998931884766 9,-2.2119998931884766 C9,-2.7820000648498535 8.720000267028809,-3.322999954223633 8.25,-3.6429998874664307z M7.5,7.26800012588501 C7.5,7.4079999923706055 7.389999866485596,7.51800012588501 7.25,7.51800012588501 C7.25,7.51800012588501 4.25,7.51800012588501 4.25,7.51800012588501 C3.559999942779541,7.51800012588501 3,6.958000183105469 3,6.26800012588501 C3,6.26800012588501 3,2.7679998874664307 3,2.7679998874664307 C3,1.8079999685287476 2.2100000381469727,1.0180000066757202 1.25,1.0180000066757202 C1.25,1.0180000066757202 -1.25,1.0180000066757202 -1.25,1.0180000066757202 C-2.2100000381469727,1.0180000066757202 -3,1.8079999685287476 -3,2.7679998874664307 C-3,2.7679998874664307 -3,6.26800012588501 -3,6.26800012588501 C-3,6.958000183105469 -3.559999942779541,7.51800012588501 -4.25,7.51800012588501 C-4.25,7.51800012588501 -7.25,7.51800012588501 -7.25,7.51800012588501 C-7.389999866485596,7.51800012588501 -7.5,7.4079999923706055 -7.5,7.26800012588501 C-7.5,7.26800012588501 -7.5,-2.2119998931884766 -7.5,-2.2119998931884766 C-7.5,-2.2920000553131104 -7.460000038146973,-2.372999906539917 -7.389999866485596,-2.4230000972747803 C-7.389999866485596,-2.4230000972747803 -0.14000000059604645,-7.4730000495910645 -0.14000000059604645,-7.4730000495910645 C-0.05000000074505806,-7.5329999923706055 0.05999999865889549,-7.5329999923706055 0.15000000596046448,-7.4730000495910645 C0.15000000596046448,-7.4730000495910645 7.400000095367432,-2.4230000972747803 7.400000095367432,-2.4230000972747803 C7.46999979019165,-2.372999906539917 7.510000228881836,-2.302000045776367 7.510000228881836,-2.2119998931884766 C7.510000228881836,-2.2119998931884766 7.510000228881836,7.26800012588501 7.510000228881836,7.26800012588501 C7.510000228881836,7.26800012588501 7.5,7.26800012588501 7.5,7.26800012588501z"></path></g></g><g class="primary design" style="display: none;"><g><path stroke-linecap="round" stroke-linejoin="round" fill-opacity="0"></path></g></g><g class="primary design" style="display: none;"><g><path stroke-linecap="round" stroke-linejoin="round" fill-opacity="0"></path></g></g></g><g clip-path="url(#__lottie_element_1135)" transform="matrix(1,0,0,1,0,0)" opacity="1" style="display: block;"><g class="primary design" transform="matrix(20.829999923706055,0,0,20.829999923706055,250.0019989013672,249.63699340820312)" opacity="1" style="display: block;"><g opacity="1" transform="matrix(1,0,0,1,0,0)"><path fill="rgb(143,155,168)" fill-opacity="1" d=" M8.25,-3.6429998874664307 C8.25,-3.6429998874664307 1,-8.70199966430664 1,-8.70199966430664 C0.4000000059604645,-9.121999740600586 -0.4000000059604645,-9.121999740600586 -1,-8.70199966430664 C-1,-8.70199966430664 -8.25,-3.6429998874664307 -8.25,-3.6429998874664307 C-8.720000267028809,-3.322999954223633 -9,-2.7820000648498535 -9,-2.2119998931884766 C-9,-2.2119998931884766 -9,7.26800012588501 -9,7.26800012588501 C-9,8.227999687194824 -8.210000038146973,9.017999649047852 -7.25,9.017999649047852 C-7.25,9.017999649047852 -4.25,9.017999649047852 -4.25,9.017999649047852 C-2.7300000190734863,9.017999649047852 -1.5,7.788000106811523 -1.5,6.26800012588501 C-1.5,6.26800012588501 -1.5,2.7679998874664307 -1.5,2.7679998874664307 C-1.5,2.628000020980835 -1.3899999856948853,2.5179998874664307 -1.25,2.5179998874664307 C-1.25,2.5179998874664307 1.25,2.5179998874664307 1.25,2.5179998874664307 C1.3899999856948853,2.5179998874664307 1.5,2.628000020980835 1.5,2.7679998874664307 C1.5,2.7679998874664307 1.5,6.26800012588501 1.5,6.26800012588501 C1.5,7.788000106811523 2.7300000190734863,9.017999649047852 4.25,9.017999649047852 C4.25,9.017999649047852 7.25,9.017999649047852 7.25,9.017999649047852 C8.210000038146973,9.017999649047852 9,8.227999687194824 9,7.26800012588501 C9,7.26800012588501 9,-2.2119998931884766 9,-2.2119998931884766 C9,-2.7820000648498535 8.720000267028809,-3.322999954223633 8.25,-3.6429998874664307z M7.5,7.26800012588501 C7.5,7.4079999923706055 7.389999866485596,7.51800012588501 7.25,7.51800012588501 C7.25,7.51800012588501 4.25,7.51800012588501 4.25,7.51800012588501 C3.559999942779541,7.51800012588501 3,6.958000183105469 3,6.26800012588501 C3,6.26800012588501 3,2.7679998874664307 3,2.7679998874664307 C3,1.8079999685287476 2.2100000381469727,1.0180000066757202 1.25,1.0180000066757202 C1.25,1.0180000066757202 -1.25,1.0180000066757202 -1.25,1.0180000066757202 C-2.2100000381469727,1.0180000066757202 -3,1.8079999685287476 -3,2.7679998874664307 C-3,2.7679998874664307 -3,6.26800012588501 -3,6.26800012588501 C-3,6.958000183105469 -3.559999942779541,7.51800012588501 -4.25,7.51800012588501 C-4.25,7.51800012588501 -7.25,7.51800012588501 -7.25,7.51800012588501 C-7.389999866485596,7.51800012588501 -7.5,7.4079999923706055 -7.5,7.26800012588501 C-7.5,7.26800012588501 -7.5,-2.2119998931884766 -7.5,-2.2119998931884766 C-7.5,-2.2920000553131104 -7.460000038146973,-2.372999906539917 -7.389999866485596,-2.4230000972747803 C-7.389999866485596,-2.4230000972747803 -0.14000000059604645,-7.4730000495910645 -0.14000000059604645,-7.4730000495910645 C-0.05000000074505806,-7.5329999923706055 0.05999999865889549,-7.5329999923706055 0.15000000596046448,-7.4730000495910645 C0.15000000596046448,-7.4730000495910645 7.400000095367432,-2.4230000972747803 7.400000095367432,-2.4230000972747803 C7.46999979019165,-2.372999906539917 7.510000228881836,-2.302000045776367 7.510000228881836,-2.2119998931884766 C7.510000228881836,-2.2119998931884766 7.510000228881836,7.26800012588501 7.510000228881836,7.26800012588501 C7.510000228881836,7.26800012588501 7.5,7.26800012588501 7.5,7.26800012588501z"></path></g></g><g class="primary design" style="display: none;"><g><path stroke-linecap="round" stroke-linejoin="round" fill-opacity="0"></path></g></g><g class="primary design" style="display: none;"><g><path stroke-linecap="round" stroke-linejoin="round" fill-opacity="0"></path></g></g></g><g clip-path="url(#__lottie_element_1119)" transform="matrix(1,0,0,1,0,0)" opacity="0" style="display: block;"><g class="primary design" transform="matrix(20.829999923706055,0,0,20.829999923706055,250.0019989013672,249.63699340820312)" opacity="1" style="display: block;"><g opacity="1" transform="matrix(1,0,0,1,0,0)"><path fill="rgb(143,155,168)" fill-opacity="1" d=" M8.25,-3.6429998874664307 C8.25,-3.6429998874664307 1,-8.70199966430664 1,-8.70199966430664 C0.4000000059604645,-9.121999740600586 -0.4000000059604645,-9.121999740600586 -1,-8.70199966430664 C-1,-8.70199966430664 -8.25,-3.6429998874664307 -8.25,-3.6429998874664307 C-8.720000267028809,-3.322999954223633 -9,-2.7820000648498535 -9,-2.2119998931884766 C-9,-2.2119998931884766 -9,7.26800012588501 -9,7.26800012588501 C-9,8.227999687194824 -8.210000038146973,9.017999649047852 -7.25,9.017999649047852 C-7.25,9.017999649047852 -4.25,9.017999649047852 -4.25,9.017999649047852 C-2.7300000190734863,9.017999649047852 -1.5,7.788000106811523 -1.5,6.26800012588501 C-1.5,6.26800012588501 -1.5,2.7679998874664307 -1.5,2.7679998874664307 C-1.5,2.628000020980835 -1.3899999856948853,2.5179998874664307 -1.25,2.5179998874664307 C-1.25,2.5179998874664307 1.25,2.5179998874664307 1.25,2.5179998874664307 C1.3899999856948853,2.5179998874664307 1.5,2.628000020980835 1.5,2.7679998874664307 C1.5,2.7679998874664307 1.5,6.26800012588501 1.5,6.26800012588501 C1.5,7.788000106811523 2.7300000190734863,9.017999649047852 4.25,9.017999649047852 C4.25,9.017999649047852 7.25,9.017999649047852 7.25,9.017999649047852 C8.210000038146973,9.017999649047852 9,8.227999687194824 9,7.26800012588501 C9,7.26800012588501 9,-2.2119998931884766 9,-2.2119998931884766 C9,-2.7820000648498535 8.720000267028809,-3.322999954223633 8.25,-3.6429998874664307z M7.5,7.26800012588501 C7.5,7.4079999923706055 7.389999866485596,7.51800012588501 7.25,7.51800012588501 C7.25,7.51800012588501 4.25,7.51800012588501 4.25,7.51800012588501 C3.559999942779541,7.51800012588501 3,6.958000183105469 3,6.26800012588501 C3,6.26800012588501 3,2.7679998874664307 3,2.7679998874664307 C3,1.8079999685287476 2.2100000381469727,1.0180000066757202 1.25,1.0180000066757202 C1.25,1.0180000066757202 -1.25,1.0180000066757202 -1.25,1.0180000066757202 C-2.2100000381469727,1.0180000066757202 -3,1.8079999685287476 -3,2.7679998874664307 C-3,2.7679998874664307 -3,6.26800012588501 -3,6.26800012588501 C-3,6.958000183105469 -3.559999942779541,7.51800012588501 -4.25,7.51800012588501 C-4.25,7.51800012588501 -7.25,7.51800012588501 -7.25,7.51800012588501 C-7.389999866485596,7.51800012588501 -7.5,7.4079999923706055 -7.5,7.26800012588501 C-7.5,7.26800012588501 -7.5,-2.2119998931884766 -7.5,-2.2119998931884766 C-7.5,-2.2920000553131104 -7.460000038146973,-2.372999906539917 -7.389999866485596,-2.4230000972747803 C-7.389999866485596,-2.4230000972747803 -0.14000000059604645,-7.4730000495910645 -0.14000000059604645,-7.4730000495910645 C-0.05000000074505806,-7.5329999923706055 0.05999999865889549,-7.5329999923706055 0.15000000596046448,-7.4730000495910645 C0.15000000596046448,-7.4730000495910645 7.400000095367432,-2.4230000972747803 7.400000095367432,-2.4230000972747803 C7.46999979019165,-2.372999906539917 7.510000228881836,-2.302000045776367 7.510000228881836,-2.2119998931884766 C7.510000228881836,-2.2119998931884766 7.510000228881836,7.26800012588501 7.510000228881836,7.26800012588501 C7.510000228881836,7.26800012588501 7.5,7.26800012588501 7.5,7.26800012588501z"></path></g></g><g class="primary design" style="display: none;"><g><path></path></g></g><g class="primary design" style="display: none;"><g><path stroke-linecap="round" stroke-linejoin="round" fill-opacity="0"></path></g></g><g class="primary design" style="display: none;"><g><path stroke-linecap="round" stroke-linejoin="round" fill-opacity="0"></path></g></g></g><g clip-path="url(#__lottie_element_1106)" transform="matrix(1,0,0,1,0,0)" opacity="0" style="display: block;"><g class="primary design" transform="matrix(20.829999923706055,0,0,20.829999923706055,250.0019989013672,249.63699340820312)" opacity="1" style="display: block;"><g opacity="1" transform="matrix(1,0,0,1,0,0)"><path fill="rgb(143,155,168)" fill-opacity="1" d=" M8.25,-3.6429998874664307 C8.25,-3.6429998874664307 1,-8.70199966430664 1,-8.70199966430664 C0.4000000059604645,-9.121999740600586 -0.4000000059604645,-9.121999740600586 -1,-8.70199966430664 C-1,-8.70199966430664 -8.25,-3.6429998874664307 -8.25,-3.6429998874664307 C-8.720000267028809,-3.322999954223633 -9,-2.7820000648498535 -9,-2.2119998931884766 C-9,-2.2119998931884766 -9,7.26800012588501 -9,7.26800012588501 C-9,8.227999687194824 -8.210000038146973,9.017999649047852 -7.25,9.017999649047852 C-7.25,9.017999649047852 -4.25,9.017999649047852 -4.25,9.017999649047852 C-2.7300000190734863,9.017999649047852 -1.5,7.788000106811523 -1.5,6.26800012588501 C-1.5,6.26800012588501 -1.5,2.7679998874664307 -1.5,2.7679998874664307 C-1.5,2.628000020980835 -1.3899999856948853,2.5179998874664307 -1.25,2.5179998874664307 C-1.25,2.5179998874664307 1.25,2.5179998874664307 1.25,2.5179998874664307 C1.3899999856948853,2.5179998874664307 1.5,2.628000020980835 1.5,2.7679998874664307 C1.5,2.7679998874664307 1.5,6.26800012588501 1.5,6.26800012588501 C1.5,7.788000106811523 2.7300000190734863,9.017999649047852 4.25,9.017999649047852 C4.25,9.017999649047852 7.25,9.017999649047852 7.25,9.017999649047852 C8.210000038146973,9.017999649047852 9,8.227999687194824 9,7.26800012588501 C9,7.26800012588501 9,-2.2119998931884766 9,-2.2119998931884766 C9,-2.7820000648498535 8.720000267028809,-3.322999954223633 8.25,-3.6429998874664307z M7.5,7.26800012588501 C7.5,7.4079999923706055 7.389999866485596,7.51800012588501 7.25,7.51800012588501 C7.25,7.51800012588501 4.25,7.51800012588501 4.25,7.51800012588501 C3.559999942779541,7.51800012588501 3,6.958000183105469 3,6.26800012588501 C3,6.26800012588501 3,2.7679998874664307 3,2.7679998874664307 C3,1.8079999685287476 2.2100000381469727,1.0180000066757202 1.25,1.0180000066757202 C1.25,1.0180000066757202 -1.25,1.0180000066757202 -1.25,1.0180000066757202 C-2.2100000381469727,1.0180000066757202 -3,1.8079999685287476 -3,2.7679998874664307 C-3,2.7679998874664307 -3,6.26800012588501 -3,6.26800012588501 C-3,6.958000183105469 -3.559999942779541,7.51800012588501 -4.25,7.51800012588501 C-4.25,7.51800012588501 -7.25,7.51800012588501 -7.25,7.51800012588501 C-7.389999866485596,7.51800012588501 -7.5,7.4079999923706055 -7.5,7.26800012588501 C-7.5,7.26800012588501 -7.5,-2.2119998931884766 -7.5,-2.2119998931884766 C-7.5,-2.2920000553131104 -7.460000038146973,-2.372999906539917 -7.389999866485596,-2.4230000972747803 C-7.389999866485596,-2.4230000972747803 -0.14000000059604645,-7.4730000495910645 -0.14000000059604645,-7.4730000495910645 C-0.05000000074505806,-7.5329999923706055 0.05999999865889549,-7.5329999923706055 0.15000000596046448,-7.4730000495910645 C0.15000000596046448,-7.4730000495910645 7.400000095367432,-2.4230000972747803 7.400000095367432,-2.4230000972747803 C7.46999979019165,-2.372999906539917 7.510000228881836,-2.302000045776367 7.510000228881836,-2.2119998931884766 C7.510000228881836,-2.2119998931884766 7.510000228881836,7.26800012588501 7.510000228881836,7.26800012588501 C7.510000228881836,7.26800012588501 7.5,7.26800012588501 7.5,7.26800012588501z"></path></g></g><g class="primary design" style="display: none;"><g><path></path></g></g><g class="primary design" style="display: none;"><g><path stroke-linecap="round" stroke-linejoin="round" fill-opacity="0"></path></g></g></g><g clip-path="url(#__lottie_element_1093)" transform="matrix(1,0,0,1,0,0)" opacity="0" style="display: block;"><g class="primary design" style="display: none;"><g><path></path></g></g><g class="primary design" style="display: none;"><g><path stroke-linecap="round" stroke-linejoin="round" fill-opacity="0"></path></g></g><g class="primary design" clip-path="url(#__lottie_element_1097)" style="display: none;"><g><path stroke-linecap="round" stroke-linejoin="round" fill-opacity="0"></path></g></g></g><g style="display: none;"><path></path></g></g></svg>