<?xml version="1.0" encoding="utf-8"?>
<!-- Generator: Adobe Illustrator 24.0.2, SVG Export Plug-In . SVG Version: 6.00 Build 0)  -->
<svg version="1.1" xmlns="http://www.w3.org/2000/svg" xmlns:xlink="http://www.w3.org/1999/xlink" x="0px" y="0px"
	 viewBox="0 0 24 24" style="enable-background:new 0 0 24 24;" xml:space="preserve">
<style type="text/css">
	.st0{fill:none;}
	.st1{fill:#8f9ba8;}
</style>
<g id="bounding_area">
	<rect class="st0" width="24" height="24"/>
</g>
<g id="design">
	<path class="st1" d="M7.82,19.97c-0.3,0-0.61-0.08-0.88-0.23c-0.56-0.32-0.89-0.88-0.89-1.52V5.79c0-0.64,0.33-1.21,0.9-1.53
		c0.56-0.32,1.25-0.31,1.8,0.02l10.42,6.22c0.53,0.32,0.85,0.87,0.85,1.49c0,0.62-0.32,1.18-0.85,1.51L8.74,19.71
		C8.46,19.88,8.14,19.97,7.82,19.97z M7.82,5.53c-0.07,0-0.12,0.02-0.14,0.04C7.61,5.6,7.54,5.67,7.54,5.79v12.43
		c0,0.12,0.08,0.18,0.13,0.21c0.04,0.02,0.16,0.08,0.29,0l10.42-6.21c0.11-0.07,0.13-0.17,0.13-0.22c0-0.06-0.02-0.14-0.12-0.2
		L7.97,5.57C7.91,5.54,7.86,5.53,7.82,5.53z"/>
</g>
</svg>
