<svg xmlns="http://www.w3.org/2000/svg" viewBox="0 0 500 500" width="500" height="500" preserveAspectRatio="xMidYMid meet" style="width: 100%; height: 100%; transform: translate3d(0px, 0px, 0px); content-visibility: visible;"><defs><clipPath id="__lottie_element_1094"><rect width="500" height="500" x="0" y="0"></rect></clipPath><clipPath id="__lottie_element_1101"><path d="M0,0 L500,0 L500,500 L0,500z"></path></clipPath><clipPath id="__lottie_element_1123"><path d="M0,0 L500,0 L500,500 L0,500z"></path></clipPath></defs><g clip-path="url(#__lottie_element_1094)"><g clip-path="url(#__lottie_element_1123)" transform="matrix(1,0,0,1,0,0)" opacity="1" style="display: block;"><g class="primary design" transform="matrix(20.829999923706055,0,0,20.829999923706055,-4957.498046875,-4957.498046875)" opacity="1" style="display: block;"><g opacity="1" transform="matrix(1,0,0,1,0,0)"><path stroke-linecap="butt" stroke-linejoin="miter" fill-opacity="0" stroke-miterlimit="4" stroke="rgb(143,155,168)" stroke-opacity="1" stroke-width="2" d="M0 0"></path></g><g opacity="1" transform="matrix(1,0,0,1,250,249.9949951171875)"><path fill="rgb(143,155,168)" fill-opacity="1" d=" M7.25,-4.005000114440918 C7.25,-4.005000114440918 -7.25,-4.005000114440918 -7.25,-4.005000114440918 C-8.210000038146973,-4.005000114440918 -9,-3.2149999141693115 -9,-2.255000114440918 C-9,-2.255000114440918 -9,2.244999885559082 -9,2.244999885559082 C-9,3.2149999141693115 -8.210000038146973,4.005000114440918 -7.25,4.005000114440918 C-7.25,4.005000114440918 7.25,4.005000114440918 7.25,4.005000114440918 C8.210000038146973,4.005000114440918 9,3.2149999141693115 9,2.255000114440918 C9,2.255000114440918 9,-2.244999885559082 9,-2.244999885559082 C9,-3.2149999141693115 8.210000038146973,-4.005000114440918 7.25,-4.005000114440918z M7.5,2.255000114440918 C7.5,2.3949999809265137 7.389999866485596,2.505000114440918 7.25,2.505000114440918 C7.25,2.505000114440918 -7.25,2.505000114440918 -7.25,2.505000114440918 C-7.389999866485596,2.505000114440918 -7.5,2.3949999809265137 -7.5,2.255000114440918 C-7.5,2.255000114440918 -7.5,-2.244999885559082 -7.5,-2.244999885559082 C-7.5,-2.384999990463257 -7.389999866485596,-2.494999885559082 -7.25,-2.494999885559082 C-7.25,-2.494999885559082 7.25,-2.494999885559082 7.25,-2.494999885559082 C7.389999866485596,-2.494999885559082 7.5,-2.384999990463257 7.5,-2.244999885559082 C7.5,-2.244999885559082 7.5,2.255000114440918 7.5,2.255000114440918z"></path></g><g opacity="1" transform="matrix(1,0,0,1,250,257.25)"><path fill="rgb(143,155,168)" fill-opacity="1" d=" M8.25,-0.75 C8.25,-0.75 -8.25,-0.75 -8.25,-0.75 C-8.65999984741211,-0.75 -9,-0.4099999964237213 -9,0 C-9,0.4099999964237213 -8.65999984741211,0.75 -8.25,0.75 C-8.25,0.75 8.25,0.75 8.25,0.75 C8.65999984741211,0.75 9,0.4099999964237213 9,0 C9,-0.4099999964237213 8.65999984741211,-0.75 8.25,-0.75z"></path></g><g opacity="1" transform="matrix(1,0,0,1,250,242.75)"><path fill="rgb(143,155,168)" fill-opacity="1" d=" M-8.25,0.75 C-8.25,0.75 8.25,0.75 8.25,0.75 C8.65999984741211,0.75 9,0.4099999964237213 9,0 C9,-0.4099999964237213 8.65999984741211,-0.75 8.25,-0.75 C8.25,-0.75 -8.25,-0.75 -8.25,-0.75 C-8.65999984741211,-0.75 -9,-0.4099999964237213 -9,0 C-9,0.4099999964237213 -8.65999984741211,0.75 -8.25,0.75z"></path></g></g><g class="primary design" style="display: none;"><g><path stroke-linecap="butt" stroke-linejoin="miter" fill-opacity="0" stroke-miterlimit="4"></path></g><g><path></path></g><g><path></path></g><g><path></path></g></g><g class="primary design" style="display: none;"><g><path stroke-linecap="round" stroke-linejoin="round" fill-opacity="0"></path></g></g><g class="primary design" style="display: none;"><g><path stroke-linecap="round" stroke-linejoin="round" fill-opacity="0"></path></g></g><g class="primary design" style="display: none;"><g><path stroke-linecap="round" stroke-linejoin="round" fill-opacity="0"></path></g></g><g class="primary design" style="display: none;"><g><path stroke-linecap="round" stroke-linejoin="round" fill-opacity="0"></path></g></g><g class="primary design" style="display: none;"><g><path stroke-linecap="round" stroke-linejoin="round" fill-opacity="0"></path></g></g><g class="primary design" style="display: none;"><g><path stroke-linecap="round" stroke-linejoin="round" fill-opacity="0"></path></g></g></g><g clip-path="url(#__lottie_element_1101)" transform="matrix(1,0,0,1,0,0)" opacity="0" style="display: block;"><g class="primary design" style="display: none;"><g><path stroke-linecap="butt" stroke-linejoin="miter" fill-opacity="0" stroke-miterlimit="4"></path></g><g><path></path></g><g><path></path></g><g><path></path></g></g><g class="primary design" style="display: none;"><g><path stroke-linecap="round" stroke-linejoin="round" fill-opacity="0"></path></g></g><g class="primary design" style="display: none;"><g><path stroke-linecap="round" stroke-linejoin="round" fill-opacity="0"></path></g></g><g class="primary design" style="display: none;"><g><path stroke-linecap="round" stroke-linejoin="round" fill-opacity="0"></path></g></g><g class="primary design" style="display: none;"><g><path stroke-linecap="round" stroke-linejoin="round" fill-opacity="0"></path></g></g><g class="primary design" style="display: none;"><g><path stroke-linecap="round" stroke-linejoin="round" fill-opacity="0"></path></g></g></g><g class="com" style="display: none;"><g><path></path></g><g><path></path></g><g><path></path></g><g><path></path></g><g><path></path></g><g><path></path></g><g><path></path></g><g><path></path></g><g><path></path></g><g><path></path></g><g><path></path></g><g><path></path></g></g></g></svg>