<?xml version="1.0" encoding="utf-8"?>
<!-- Generator: Adobe Illustrator 24.0.2, SVG Export Plug-In . SVG Version: 6.00 Build 0)  -->
<svg version="1.1" xmlns="http://www.w3.org/2000/svg" xmlns:xlink="http://www.w3.org/1999/xlink" x="0px" y="0px"
	 viewBox="0 0 24 24" style="enable-background:new 0 0 24 24;" xml:space="preserve">
<style type="text/css">
	.st0{fill:none;}
	.st1{fill:#8f9ba8;}
</style>
<g id="bounding_box">
	<rect y="0" class="st0" width="24" height="24"/>
</g>
<g id="design">
	<path class="st1" d="M19.25,6.5H16V4.75C16,3.79,15.21,3,14.25,3h-4.5C8.79,3,8,3.79,8,4.75V6.5H4.75C3.79,6.5,3,7.29,3,8.25v11
		C3,20.21,3.79,21,4.75,21h14.5c0.96,0,1.75-0.79,1.75-1.75v-11C21,7.29,20.21,6.5,19.25,6.5z M9.5,4.75c0-0.14,0.11-0.25,0.25-0.25
		h4.5c0.14,0,0.25,0.11,0.25,0.25V6.5h-5V4.75z M19.5,19.25c0,0.14-0.11,0.25-0.25,0.25H4.75c-0.14,0-0.25-0.11-0.25-0.25V13.5H7
		v1.75C7,15.66,7.34,16,7.75,16s0.75-0.34,0.75-0.75V13.5h7v1.75c0,0.41,0.34,0.75,0.75,0.75S17,15.66,17,15.25V13.5h2.5V19.25z
		 M19.5,12h-15V8.25C4.5,8.11,4.61,8,4.75,8h14.5c0.14,0,0.25,0.11,0.25,0.25V12z"/>
</g>
</svg>
